<?xml version="1.0" encoding="UTF-8"?>
<svg width="96px" height="69px" viewBox="0 0 96 69" version="1.1" xmlns="http://www.w3.org/2000/svg" xmlns:xlink="http://www.w3.org/1999/xlink">
    <!-- Generator: Sketch 51.1 (57501) - http://www.bohemiancoding.com/sketch -->
    <title>Group 6</title>
    <desc>Created with Sketch.</desc>
    <defs>
        <filter x="-39.5%" y="-51.0%" width="178.9%" height="213.7%" filterUnits="objectBoundingBox" id="filter-1">
            <feOffset dx="0" dy="2" in="SourceAlpha" result="shadowOffsetOuter1"></feOffset>
            <feGaussianBlur stdDeviation="6" in="shadowOffsetOuter1" result="shadowBlurOuter1"></feGaussianBlur>
            <feColorMatrix values="0 0 0 0 0   0 0 0 0 0   0 0 0 0 0  0 0 0 0.000622735507 0" type="matrix" in="shadowBlurOuter1" result="shadowMatrixOuter1"></feColorMatrix>
            <feMerge>
                <feMergeNode in="shadowMatrixOuter1"></feMergeNode>
                <feMergeNode in="SourceGraphic"></feMergeNode>
            </feMerge>
        </filter>
        <filter x="-23.0%" y="-31.6%" width="146.1%" height="171.4%" filterUnits="objectBoundingBox" id="filter-2">
            <feOffset dx="0" dy="2" in="SourceAlpha" result="shadowOffsetOuter1"></feOffset>
            <feGaussianBlur stdDeviation="5.5" in="shadowOffsetOuter1" result="shadowBlurOuter1"></feGaussianBlur>
            <feColorMatrix values="0 0 0 0 0   0 0 0 0 0   0 0 0 0 0  0 0 0 0.281872736 0" type="matrix" in="shadowBlurOuter1" result="shadowMatrixOuter1"></feColorMatrix>
            <feMerge>
                <feMergeNode in="shadowMatrixOuter1"></feMergeNode>
                <feMergeNode in="SourceGraphic"></feMergeNode>
            </feMerge>
        </filter>
        <filter x="-29.2%" y="-13.2%" width="158.3%" height="136.8%" filterUnits="objectBoundingBox" id="filter-3">
            <feOffset dx="0" dy="2" in="SourceAlpha" result="shadowOffsetOuter1"></feOffset>
            <feGaussianBlur stdDeviation="2" in="shadowOffsetOuter1" result="shadowBlurOuter1"></feGaussianBlur>
            <feColorMatrix values="0 0 0 0 0   0 0 0 0 0   0 0 0 0 0  0 0 0 0.188490716 0" type="matrix" in="shadowBlurOuter1" result="shadowMatrixOuter1"></feColorMatrix>
            <feMerge>
                <feMergeNode in="shadowMatrixOuter1"></feMergeNode>
                <feMergeNode in="SourceGraphic"></feMergeNode>
            </feMerge>
        </filter>
    </defs>
    <g id="App" stroke="none" stroke-width="1" fill="none" fill-rule="evenodd">
        <g id="Main" transform="translate(-16.000000, -127.000000)">
            <g id="Timeline" transform="translate(16.000000, 105.000000)">
                <g id="Group-6" filter="url(#filter-1)" transform="translate(10.000000, 30.000000)">
                    <g id="Group-4" filter="url(#filter-2)">
                        <polyline id="Fill-685" fill="#926342" points="48.1215894 14.867 54.2519205 8.65325 60.2060927 5.75 65.8331126 9.47075 71.462649 13.19075 71.0222517 19.8695 64.8541722 29.34125 59.4486093 33.4775 46.3046358 26.112 48.1215894 14.867"></polyline>
                        <polyline id="Fill-686" fill="#7B5336" points="68.4503311 18.9155 71.6589404 13.25 75.5646358 26.0645 68.4503311 18.9155"></polyline>
                        <polyline id="Fill-687" fill="#A5704C" points="47.1225166 21 58.0066225 28.00175 59.4309934 33.788 46.3046358 26.06125 47.1225166 21"></polyline>
                        <polyline id="Fill-688" fill="#926342" points="59.6423841 33.81875 59.6423841 19.208 65.7098013 16.25 75.5696689 26.16125 65.0554967 29.49725 59.6423841 33.81875"></polyline>
                        <polyline id="Fill-689" fill="#734D32" points="53.602649 21.84775 59.4460927 19 59.4360265 33.78675 53.602649 21.84775"></polyline>
                        <polyline id="Fill-690" fill="#BA7D56" points="54.3576159 8.65325 60.1482119 12.54275 65.9388079 9.47075 60.3117881 5.75 54.3576159 8.65325"></polyline>
                        <polyline id="Fill-691" fill="#A5704C" points="48.0662252 18.27625 54.0455629 15.36075 54.3475497 8.75 48.2172185 14.96375 48.0662252 18.27625"></polyline>
                        <polyline id="Fill-692" fill="#A5704C" points="59.6423841 19.208 62.8786755 22.87775 70.5290066 21.09425 65.7098013 16.25 59.6423841 19.208"></polyline>
                        <polyline id="Fill-693" fill="#7B5336" points="60.2438411 12.572 59.6423841 19.08125 65.7098013 16.12325 70.4283444 12.404 66.0344371 9.5 60.2438411 12.572"></polyline>
                        <polyline id="Fill-694" fill="#926342" points="46.0096954 9.904 36.4487947 4.8415 26.667947 0 8.09752318 12.21725 0 28.8225 14.0985033 42.10275 29.3465695 43.34725 46.9030728 20.52075 46.0096954 9.904"></polyline>
                        <polyline id="Fill-695" fill="#926342" points="46.7616424 40.646 38.9736556 45.56025 29.358649 43.42675 28.6887417 32.59125 36.8071523 27.25 47.8538278 35.79725 46.7616424 40.646"></polyline>
                        <polyline id="Fill-696" fill="#7B5336" points="42.0456159 31.25 29.192053 38.68075 29.4882517 43.4735 39.2706093 48.3155 48.3835629 42.322 42.0456159 31.25"></polyline>
                        <polyline id="Fill-697" fill="#A5704C" points="57.4630464 36.34025 55.48 30.60225 52.2361589 28.5 42.5298013 32.7605 48.350596 42.33525 57.4630464 36.34025"></polyline>
                        <polyline id="Fill-698" fill="#A5704C" points="55.4991258 30.55875 55.7180662 24.9175 51.5858808 17.61975 46.1375364 10 30.7019868 20.0815 36.3493907 34.50475 55.4991258 30.55875"></polyline>
                        <polyline id="Fill-699" fill="#BA7D56" points="36.5091921 4.8415 27.4516026 11.04 17.615894 5.995 26.7283444 0 36.5091921 4.8415"></polyline>
                        <polyline id="Fill-700" fill="#A5704C" points="28.1215099 21.6835 19.0085563 27.67875 9.48968212 22.86625 8.55629139 12 28.1215099 21.6835"></polyline>
                        <polyline id="Fill-701" fill="#A5704C" points="29.3790331 43.3355 28.7091258 32.5 9.81456954 33.65275 14.1309669 42.091 29.3790331 43.3355"></polyline>
                        <polyline id="Fill-702" fill="#BA7D56" points="55.8018675 24.79775 38.7549669 29.16575 51.6696821 17.5 55.8018675 24.79775"></polyline>
                        <polyline id="Fill-703" fill="#7B5336" points="27.5041987 11.045 28.1215099 21.6785 8.55629139 11.995 17.6684901 6 27.5041987 11.045"></polyline>
                        <polyline id="Fill-704" fill="#7B5336" points="9.78210596 33.75125 4.10072848 20.5 0 28.90925 14.0985033 42.1895 9.78210596 33.75125"></polyline>
                    </g>
                    <g id="Group-5" filter="url(#filter-3)" transform="translate(18.000000, 13.000000)">
                        <path d="M14.4710675,11.3994845 C14.4710675,11.3994845 14.4154793,10.4846697 15.5016557,10.0606882 C17.0794793,9.44670673 19.7798322,17.6413364 19.4067734,16.4837438 C19.4067734,16.4837438 18.070891,18.5702252 17.1287145,17.6466141 C15.959244,16.4995771 14.4710675,11.3994845 14.4710675,11.3994845" id="Fill-610" fill="#E3A982"></path>
                        <path d="M20.7414706,12.4413149 C20.9373529,11.7868705 20.5865294,11.4086297 20.6781176,11.0620557 C20.7665294,10.7295557 20.8381765,10.3601112 20.9788235,10.1490001 C21.1192941,9.93964827 21.3795882,9.70566679 21.4120588,9.50335197 C21.4346471,9.36261123 21.3954706,9.0142779 21.4713529,8.99668531 C21.5472353,8.97909271 21.7672941,9.1092779 21.7888235,9.42946308 C21.81,9.74437049 21.7637647,9.76900012 21.7018235,9.89742605 C21.6400588,10.0276112 21.5064706,10.1894631 21.6109412,10.120852 C21.7154118,10.0540001 21.8848235,9.83057419 22.089,9.5367779 C22.293,9.2429816 22.374,9.16029642 22.3842353,9.13038901 C22.3907647,9.11103716 22.3665882,9.02483345 22.3618235,8.79788901 C22.359,8.66770382 22.3655294,8.51288901 22.362,8.45835197 C22.3388824,8.09242605 22.4678824,7.95168531 22.5914118,7.91825938 C22.7149412,7.88483345 22.7853529,8.3879816 22.8021176,8.44603716 C22.8187059,8.50585197 22.8811765,9.16909271 22.8301765,9.35205568 C22.7641765,9.58603716 22.5494118,9.92205568 22.3365882,10.2264075 C22.2243529,10.3865001 22.9801765,11.1306668 22.7209412,11.6707594 C22.4615294,12.2090927 22.0655294,12.5996483 21.8952353,12.9022409 C21.7249412,13.2048335 21.537,13.5373335 21.537,13.5373335 L20.4705882,13.0007594 C20.4705882,13.0007594 20.6578235,12.7192779 20.7414706,12.4413149" id="Fill-611" fill="#E3A982"></path>
                        <path d="M22.462535,10.8612482 C22.201535,10.9474519 22.0111232,10.6518963 22.0693585,10.4478222 C22.0739468,10.4319889 22.228888,10.1892111 22.4371232,9.9182852 C22.6557703,9.6332852 22.7221232,9.54180372 22.7323585,9.51013706 C22.7390644,9.4907852 22.6633585,9.4045815 22.6047703,9.18291483 C22.5710644,9.05624817 22.540888,8.90319261 22.5244762,8.85041483 C22.4152409,8.49504446 22.5066527,8.33143335 22.6183585,8.2733778 C22.7302409,8.21532224 22.9176527,8.69560002 22.9478291,8.7483778 C22.9780056,8.80291483 23.2294762,9.54884076 23.1782997,9.73180372 C23.1124762,9.9657852 22.8977115,10.3018037 22.6847115,10.6061556 C22.6700644,10.6272667 22.5493585,10.8313408 22.462535,10.8612482" id="Fill-612" fill="#E3A982"></path>
                        <path d="M22.462535,11.9168034 C22.201535,12.0030071 22.0111232,11.7074515 22.0693585,11.5033775 C22.0739468,11.4875441 22.228888,11.2447664 22.4371232,10.9738404 C22.6557703,10.6888404 22.7222997,10.597359 22.7323585,10.5674515 C22.7390644,10.5463404 22.6633585,10.461896 22.6047703,10.2402293 C22.5712409,10.1118034 22.540888,9.9605071 22.5244762,9.90597007 C22.4152409,9.55235896 22.5066527,9.38698859 22.6183585,9.32893303 C22.7302409,9.27087747 22.9178291,9.75115525 22.9478291,9.80569229 C22.9780056,9.86022933 23.2294762,10.6061553 23.1782997,10.787359 C23.1124762,11.0230997 22.8977115,11.3591182 22.6847115,11.6634701 C22.6700644,11.6845812 22.5493585,11.886896 22.462535,11.9168034" id="Fill-613" fill="#E3A982"></path>
                        <path d="M22.462535,11.3872828 C22.201535,11.4752458 22.0111232,11.177931 22.0693585,10.9756161 C22.0741232,10.9580235 22.228888,10.717005 22.4371232,10.4443198 C22.6557703,10.1610791 22.7221232,10.0695976 22.732535,10.037931 C22.7390644,10.0185791 22.6633585,9.9323754 22.6047703,9.71070873 C22.5710644,9.58404207 22.5410644,9.43098651 22.5244762,9.37820873 C22.4152409,9.02283836 22.5066527,8.85922725 22.618535,8.8011717 C22.7302409,8.74311614 22.9178291,9.22163466 22.9478291,9.2761717 C22.9780056,9.33070873 23.2294762,10.0766347 23.1782997,10.2595976 C23.1124762,10.4935791 22.8977115,10.8295976 22.6847115,11.1339495 C22.6700644,11.1550606 22.5493585,11.3591347 22.462535,11.3872828" id="Fill-614" fill="#E3A982"></path>
                        <path d="M16.2352941,17.6328087 C16.2352941,17.6328087 16.3653529,19.7597531 18.0333529,19.4659568 C18.0333529,19.4659568 21.8461765,13.0147531 22.0344706,12.3884568 C22.0344706,12.3884568 21.0712941,11.6073457 20.7935294,11.8254939 C20.1222353,12.3515124 16.2352941,17.6328087 16.2352941,17.6328087" id="Fill-615" fill="#E3A982"></path>
                        <path d="M21.6171113,33.0248148 C21.6171113,33.0248148 22.4763466,35.237963 20.7061701,36.107037 C20.1589348,36.3762037 19.5119937,36.3498148 18.9605231,36.0894444 C16.7225231,35.0356481 9.65434661,31.6877778 8.31705249,31.0491667 C8.31705249,31.0491667 7.92740543,30.6656481 8.23746425,29.917963 C8.47887602,29.3356481 9.17822896,29.2037037 9.17822896,29.2037037 C9.17822896,29.2037037 19.5813466,31.5241667 21.6171113,33.0248148" id="Fill-616" fill="#D29E79"></path>
                        <path d="M10.4117647,27.6861005 C10.4117647,27.6861005 11.3350588,22.2024894 14.8044706,23.9001746 C14.8044706,23.9001746 18.5320588,28.3458227 19.2310588,29.4805449 C19.9995882,30.7278598 20.8948235,31.7236005 21.4240588,32.5064709 C21.8925882,33.199619 21.8440588,34.0423042 21.3063529,34.4574894 C20.5039412,35.0749894 19.3166471,35.6907301 18.4051765,34.8990635 C17.9451176,34.4997116 17.0945294,34.4047116 16.0355294,33.2805449 C15.0818824,32.2689709 13.2139412,31.2943412 12.3727059,30.2898042 C11.2748824,28.9773968 10.4117647,27.6861005 10.4117647,27.6861005" id="Fill-617" fill="#D29E79"></path>
                        <path d="M8.77115125,25.160124 C9.66673948,24.1327166 10.956563,23.362161 12.6866807,23.9585499 C12.6866807,23.9585499 15.7735042,28.1913277 16.6932689,29.2679944 C17.7044454,30.4519759 18.558916,31.7309573 19.0343277,32.6158647 C19.5332101,33.5447536 19.7428571,34.137624 19.2700924,34.6231796 C18.564916,35.3497536 17.4667395,36.1203092 16.3930924,35.4183647 C15.8509748,35.0629944 15.4182689,34.6390129 14.133563,33.6133647 C12.9764454,32.6915129 10.9161512,31.6148462 9.87479831,30.6859573 C9.5880336,30.4308647 9.30179831,30.1652166 9.02879831,29.9066055 C7.69379831,28.6434573 7.56409242,26.544661 8.77115125,25.160124" id="Fill-618" fill="#FABA8F"></path>
                        <path d="M7.01238808,30.5742217 L6.07497631,28.3857032 C5.96732925,28.1341291 5.71921161,27.9687588 5.44497631,27.9722773 C5.27009396,27.9740366 5.04562337,27.9881106 4.77174102,28.0268143 C4.22397631,28.1007032 3.38785867,28.3487588 2.77709396,28.4208884 C2.18132925,28.4912588 1.5774469,28.6548699 1.14985867,28.7217217 C0.839976312,28.770981 0.658388077,28.7006106 0.468858665,28.8466291 C-0.276200159,29.4219069 0.0899763121,29.7737588 0.0899763121,29.7737588 C0.0899763121,29.7737588 0.468682194,30.1819069 1.17756455,30.2311662 C1.75391749,30.2716291 4.36815278,30.9542217 5.14727043,31.3641291 C5.14727043,31.3641291 5.54079984,30.3613514 7.01238808,30.5742217" id="Fill-619" fill="#FABA8F"></path>
                        <path d="M19.2914397,32.6553704 C19.2914397,32.6553704 20.2572633,34.5289815 18.9730868,35.5757407 C18.372028,36.0665741 17.5302633,36.1334259 16.8201456,35.8202778 C14.1557927,34.6486111 6.8218515,32.069537 5.23626327,31.4590741 C5.23626327,31.4590741 4.93979268,31.4960185 5.28426327,30.4510185 C5.52832209,29.7103704 5.96279268,29.5555556 5.96279268,29.5555556 C5.96279268,29.5555556 17.0008515,31.2602778 19.2914397,32.6553704" id="Fill-620" fill="#FABA8F"></path>
                        <path d="M18.2835184,12.3652378 C17.856989,10.880423 16.3501067,9.97088597 16.3501067,9.97088597 C16.1240479,9.4730156 15.3731655,9.18449708 14.3355184,9.15458967 C11.164342,9.06838597 10.3758714,9.87588597 10.3758714,9.87588597 C10.3758714,9.87588597 7.47187138,11.117923 6.52034197,13.587923 C6.52034197,13.587923 5.93622432,16.8161637 6.29057726,20.475423 C6.39663609,21.5696823 6.84010668,23.7564415 6.31634197,26.2510712 C9.74904785,27.9311637 13.6958126,28.08246 17.6275773,27.0603304 C17.6399302,26.3478304 17.5917537,25.8745897 18.0336361,24.6976452 C18.2962243,23.99746 19.0054596,22.5918119 19.2539302,21.9936637 C20.4297537,19.1612563 21.4824008,14.8915341 21.4864596,14.2265341 C21.4968714,12.4707934 20.2107537,12.4215341 19.2539302,12.6396823 C18.7831067,12.7469971 18.5131067,13.1621823 18.2835184,12.3652378" id="Fill-621" fill="#E8E8E8"></path>
                        <path d="M10.4320588,9.5225313 C10.4320588,9.5225313 7.58505882,10.4461424 6.57935294,12.8141054 C6.54405882,12.9231795 6.52941176,12.9865128 6.52941176,12.9865128 C6.59135294,13.3014202 8.77923529,14.0719757 8.49617647,16.448735 C8.57894118,16.4575313 10.638,16.0863276 12.5265882,14.6419757 C14.3917059,13.2134572 14.3917059,8.80299426 14.3917059,8.80299426 C11.2207059,8.7150313 10.4320588,9.5225313 10.4320588,9.5225313" id="Fill-622" fill="#FABA8F"></path>
                        <path d="M6.53862916,13.2634647 C6.56615857,12.7497609 6.87939386,12.2800387 7.36309975,12.1005943 C7.78345269,11.9440202 8.34551151,11.8032795 8.91215857,12.3820758 C9.7909821,13.2775387 10.5243939,15.9815202 10.5243939,15.9815202 L8.52321739,16.2155017 C8.52321739,16.2155017 6.37186445,16.373835 6.53862916,13.2634647" id="Fill-623" fill="#E3A982"></path>
                        <path d="M9.75758824,6.68518519 C9.75758824,6.68518519 10.1707059,9.57564815 9.52941176,10.3743519 C9.52941176,10.3743519 10.2102353,12.0262963 11.9539412,11.5794444 C13.0342941,11.3014815 13.3342941,10.8141667 13.3342941,10.8141667 L13.3771765,7.125 L9.75758824,6.68518519" id="Fill-624" fill="#E3A982"></path>
                        <path d="M8.65173006,4.44916667 C8.65173006,4.44916667 8.33373006,9.93101852 12.9452595,9.94157407 C14.1736712,9.94509259 14.6826124,8.8825 15.1896124,7.06342593 C15.4814948,6.01490741 15.5282595,4.13601852 15.0293771,2.7075 C14.4729654,1.11537037 13.5112006,0.87962963 12.2549065,0.87962963 C8.58220065,0.87962963 8.65173006,4.44916667 8.65173006,4.44916667" id="Fill-625" fill="#FABA8F"></path>
                        <path d="M9.35294118,6.65 C9.35294118,6.65 9.39935294,10.0963889 12.7372941,10.1016667 C14.9218235,10.1051852 15.2352353,5.98148148 15.2352353,5.98148148 C15.2352353,5.98148148 15.0337059,6.39842593 14.9611765,6.75203704 C14.8272353,7.40296296 14.7864706,9.56157407 12.6794118,9.58092593 C11.2487647,9.59324074 10.3983529,8.57814815 9.83770588,7.48037037 C9.62541176,7.06342593 9.68117647,6.65 9.35294118,6.65" id="Fill-626" fill="#333333"></path>
                        <path d="M14.2447871,1.94995093 C14.2447871,1.94995093 11.6849047,4.52726575 9.82596353,4.25985834 C9.82596353,4.25985834 9.44584588,6.47652501 9.97261059,7.6904139 C9.97261059,7.6904139 9.61419882,7.54087686 9.46014,6.72458056 C9.39784588,6.39559908 9.47884588,5.77282131 9.46014,5.29254353 C9.46014,5.29254353 9.34631647,4.94421019 9.08478706,4.89671019 C8.95702235,4.87559908 8.83508118,4.96356205 8.80614,5.08846945 C8.73061059,5.41745093 8.62896353,6.2091176 9.17937529,6.85124723 C9.17937529,6.85124723 6.99714,5.95050649 7.48208118,3.69513612 C7.96702235,1.43976575 9.63925765,-0.574586102 12.0090812,0.150228713 C12.0090812,0.150228713 13.1965518,0.0270805644 14.0737871,0.350784268 C15.3424341,0.82050649 16.3458459,2.70115464 15.3893753,4.98467316 C15.3893753,4.98467316 14.9986694,3.4541176 14.2447871,1.94995093" id="Fill-627" fill="#333333"></path>
                        <path d="M9.41722638,22.6944444 C9.41722638,22.6944444 16.9008146,25.1222222 18.5474617,26.5419444 C20.639697,28.3434259 24.1108734,31.879537 23.8712264,33.8903704 C23.3176381,38.5418519 16.5994028,38.3782407 13.7566381,37.4036111 C9.93622638,36.0947222 5.58922638,32.4055556 5.58922638,32.4055556 C5.58922638,32.4055556 6.03799108,32.2507407 6.64752049,30.3137963 C6.85434402,29.6575926 5.57087344,28.7128704 5.49340285,27.9810185 C5.21440285,25.3474074 7.55069697,23.7693519 9.41722638,22.6944444" id="Fill-628" fill="#E8E8E8"></path>
                        <path d="M6.89047626,14.0252549 C6.89047626,14.0252549 6.68700567,12.5545142 8.31671155,12.4911808 C10.0851233,12.4225697 11.5810645,20.3990512 11.5810645,20.3990512 C11.5810645,20.3990512 10.5982998,22.8796068 9.67341743,21.883866 C8.5258292,20.648866 6.89047626,14.0252549 6.89047626,14.0252549" id="Fill-629" fill="#FABA8F"></path>
                        <path d="M15.0135882,15.7333347 C15.3190588,15.1000014 15.0238235,14.6584273 15.1731176,14.3224088 C15.3172941,13.9969458 15.45,13.6345384 15.6271765,13.4427792 C15.8043529,13.2510199 16.107,13.0557421 16.1726471,12.8569458 C16.2188824,12.7162051 16.2356471,12.3555569 16.3155882,12.3502792 C16.3953529,12.3450014 16.5981176,12.512131 16.5679412,12.8411125 C16.5382941,13.1648162 16.4872941,13.1824088 16.4034706,13.3037977 C16.3194706,13.4251866 16.1572941,13.5676866 16.2744706,13.516668 C16.3918235,13.4638903 16.6004118,13.265094 16.8555882,12.9994458 C17.1109412,12.7337977 17.2067647,12.661668 17.2221176,12.6335199 C17.232,12.614168 17.2214118,12.5226866 17.2533529,12.2904643 C17.2717059,12.1585199 17.3032941,12.0037051 17.3087647,11.9474088 C17.3445882,11.5709273 17.4986471,11.4477792 17.6297647,11.4354643 C17.7607059,11.4213903 17.7506471,11.9438903 17.7580588,12.0054643 C17.7654706,12.0687977 17.7211765,12.7531495 17.6394706,12.9308347 C17.5342941,13.1577792 17.2614706,13.4656495 16.9953529,13.740094 C16.8552353,13.8861125 17.5027059,14.7639829 17.1515294,15.2706495 C16.8003529,15.7773162 16.3342941,16.1080569 16.1119412,16.3895384 C15.8895882,16.6692606 15.6442941,16.9788903 15.6442941,16.9788903 L14.6470588,16.2593532 C14.6470588,16.2593532 14.8831765,16.0042606 15.0135882,15.7333347" id="Fill-630" fill="#FABA8F"></path>
                        <path d="M17.1250224,14.3947529 C16.8456694,14.4404936 16.7000812,14.1097529 16.7923753,13.9109566 C16.7997871,13.8951233 16.9967282,13.6734566 17.2524341,13.4324381 C17.5210224,13.1773455 17.6036106,13.0946603 17.6189635,13.0665121 C17.6290224,13.0471603 17.5658459,12.9468825 17.5423753,12.712901 C17.5289635,12.5774381 17.5229635,12.4173455 17.5150224,12.3610492 C17.4613753,11.9828084 17.5811988,11.8297529 17.7041988,11.7892899 C17.8271988,11.748827 17.9399635,12.2660492 17.9618459,12.325864 C17.9835518,12.3856788 18.1180224,13.1861418 18.0363165,13.3620677 C17.9313165,13.5907714 17.6583165,13.8968825 17.3921988,14.1730862 C17.3740224,14.1924381 17.2181988,14.3789196 17.1250224,14.3947529" id="Fill-631" fill="#FABA8F"></path>
                        <path d="M16.9487268,15.4503084 C16.6691974,15.4960492 16.5236091,15.1653084 16.6159032,14.9665121 C16.623315,14.9506788 16.8202562,14.7290121 17.0761385,14.4879936 C17.3445503,14.232901 17.4271385,14.1502158 17.4424915,14.1203084 C17.4525503,14.1027158 17.3893738,14.0024381 17.3659032,13.7684566 C17.3524915,13.6329936 17.3464915,13.472901 17.3385503,13.4166047 C17.2849032,13.038364 17.4047268,12.8853084 17.5277268,12.8448455 C17.6507268,12.8043825 17.7634915,13.3216047 17.7853738,13.3814196 C17.8070797,13.4412344 17.9415503,14.2416973 17.8598444,14.4176233 C17.7548444,14.646327 17.4818444,14.9524381 17.2157268,15.2286418 C17.1975503,15.2479936 17.0415503,15.4344751 16.9487268,15.4503084" id="Fill-632" fill="#FABA8F"></path>
                        <path d="M17.1250224,14.7466047 C16.8456694,14.7923455 16.7000812,14.4616047 16.7923753,14.2628084 C16.7997871,14.2469751 16.9967282,14.0253084 17.2524341,13.7842899 C17.5210224,13.5291973 17.6036106,13.4465121 17.6189635,13.4166047 C17.6288459,13.3990121 17.5658459,13.2987344 17.5421988,13.0647529 C17.5287871,12.9292899 17.5229635,12.7691973 17.5148459,12.712901 C17.4613753,12.3346603 17.5810224,12.1816047 17.7040224,12.1411418 C17.8271988,12.1006788 17.9399635,12.617901 17.9616694,12.6777158 C17.9835518,12.7375307 18.1180224,13.5379936 18.0363165,13.7139196 C17.93114,13.9426233 17.6583165,14.2487344 17.3921988,14.5249381 C17.3740224,14.5442899 17.2181988,14.7307714 17.1250224,14.7466047" id="Fill-633" fill="#FABA8F"></path>
                        <path d="M10.8080216,22.0578412 C10.196551,22.1475634 8.96602159,22.0912671 9.20743335,20.082193 C9.20743335,20.082193 14.8739039,15.6822856 15.2279039,15.3533041 C15.2279039,15.3533041 16.7083157,15.0788597 16.6583745,15.8458967 C16.6142569,16.5267301 12.3011392,20.8316375 11.3293157,21.7939523 C11.1870804,21.934693 11.0063745,22.0279338 10.8080216,22.0578412" id="Fill-634" fill="#FABA8F"></path>
                        <path d="M18.746144,13.0186162 C18.6774969,13.0256532 18.6577322,13.125931 18.6598499,13.8788939 C18.6579087,14.2553754 18.647144,14.7972273 18.5587322,15.5625051 C18.4629087,16.3260236 18.2820263,17.3235236 17.7953205,18.5391717 C17.5530263,19.1461162 17.2410263,19.7741717 16.8684969,20.3969495 C16.4956146,21.0038939 16.0263793,21.5686162 15.4584969,22.0453754 C14.8832028,22.5115791 14.239791,22.8968569 13.5810263,23.2100051 C12.9192616,23.5196347 12.2384381,23.7395421 11.5904381,23.9207458 C10.2836734,24.2550051 9.09408516,24.3658384 8.24649692,24.3816717 C7.39749692,24.3957458 6.88749692,24.3376902 6.88237928,24.3781532 C6.88026163,24.3939865 7.00590869,24.4221347 7.23920281,24.4625977 C7.47214398,24.5083384 7.81537928,24.5382458 8.24561457,24.5628754 C9.10555575,24.6015791 10.3214381,24.5417643 11.6712616,24.240931 C12.3414969,24.0755606 13.0486146,23.8662088 13.7426734,23.5600977 C14.4337322,23.250468 15.115791,22.8616717 15.7325557,22.3761162 C16.3410263,21.8817643 16.8607322,21.2730606 17.2613205,20.6291717 C17.6495557,19.9923199 17.9767322,19.3431532 18.2282028,18.7115791 C18.7343205,17.448431 18.9102616,16.4051902 18.985791,15.6117643 C19.0539087,14.8148199 19.0300852,14.2571347 18.9896734,13.8718569 C18.9024969,13.1030606 18.8056146,13.0150977 18.746144,13.0186162" id="Fill-635" fill="#D4D5D4"></path>
                        <path d="M15.3563365,28.2577764 C15.3409836,28.322869 15.3695718,28.363332 15.6134542,28.4671282 C15.8518659,28.5797208 16.3218071,28.7556468 17.0391601,29.3854616 C17.7586307,30.0047208 18.5375718,31.0092579 19.3743954,31.6373134 C19.7869836,31.9522208 20.2025718,32.1668505 20.5168659,32.2688875 C20.8316895,32.3726838 21.0330424,32.3832394 21.038513,32.3550912 C21.0471601,32.319906 20.8629248,32.2512949 20.5856895,32.1017579 C20.3077483,31.9539801 19.9458071,31.7112023 19.5808659,31.3804616 C18.8423365,30.7260171 18.1184542,29.7056468 17.3478071,29.0371282 C16.583513,28.363332 16.0078659,28.1926838 15.7193365,28.1557394 C15.4211012,28.1240727 15.3706307,28.1979616 15.3563365,28.2577764" id="Fill-636" fill="#D4D5D4"></path>
                        <path d="M6.89874412,29.2534092 C6.86168529,29.306187 6.87033235,29.3624833 7.10962647,29.5595203 C7.35192059,29.7512796 7.82027353,30.0925759 8.74745,30.6414648 C9.67250882,31.1956315 10.9018029,31.8131315 11.9256853,32.2230389 C12.4339206,32.4218352 12.8872735,32.6206315 13.2753324,32.6452611 C13.6639206,32.6751685 13.8813324,32.5185944 13.8620971,32.4974833 C13.8499206,32.4622981 13.6300382,32.5467426 13.2980971,32.4658166 C12.9679206,32.393687 12.5489794,32.1597055 12.0571559,31.9204463 C11.0782735,31.4384092 9.89486177,30.785724 8.98497941,30.2421129 C8.07350882,29.7020203 7.58450882,29.408224 7.29703824,29.2885944 C7.01256765,29.1619277 6.93597941,29.2006315 6.89874412,29.2534092" id="Fill-637" fill="#D4D5D4"></path>
                    </g>
                </g>
            </g>
        </g>
    </g>
</svg>