<?xml version="1.0" encoding="UTF-8"?>
<svg width="44px" height="61px" viewBox="0 0 44 61" version="1.1" xmlns="http://www.w3.org/2000/svg" xmlns:xlink="http://www.w3.org/1999/xlink">
    <!-- Generator: Sketch 51.1 (57501) - http://www.bohemiancoding.com/sketch -->
    <title>Group 4</title>
    <desc>Created with Sketch.</desc>
    <defs></defs>
    <g id="App" stroke="none" stroke-width="1" fill="none" fill-rule="evenodd">
        <g id="Main" transform="translate(-42.000000, -130.000000)">
            <g id="Timeline" transform="translate(16.000000, 105.000000)">
                <g id="Group-4" transform="translate(26.000000, 25.000000)">
                    <path d="M32.9556675,23.4275686 C32.9379345,25.389159 32.1344081,27.4421938 30.7512343,29.0513894 C28.3938539,31.7924863 24.1024685,35.0554845 17.7573804,36.6390311 C11.6162217,38.1723949 6.49803526,37.8980622 3.36151134,36.9256307 C1.30337531,36.2877514 0.0155163728,34.3094333 0.0155163728,31.803638 L0.0155163728,27.6406947 C2.74639798,25.086947 11.7658438,22.800841 16.1337028,21.7090859 C20.257733,20.6797806 30.746801,16.129872 32.6763728,18.3100366 C32.9689673,18.640128 32.9756171,21.1024314 32.9556675,23.4275686" id="Fill-347" fill="#7C6A52"></path>
                    <path d="M32.9335013,19.4218647 C32.9335013,24.1345887 25.5643325,29.7952102 16.475063,32.0645887 C7.38468514,34.3339671 0.0155163728,32.3534186 0.0155163728,27.6406947 C0.0155163728,22.9290859 7.38468514,17.2684644 16.475063,14.9990859 C25.5643325,12.7297075 32.9335013,14.7102559 32.9335013,19.4218647" id="Fill-348" fill="#AA9071"></path>
                    <path d="M28.6997481,20.3050823 C28.6997481,23.8557952 23.1471033,28.1202194 16.2988413,29.8297806 C9.45057935,31.540457 3.89793451,30.0483547 3.89793451,26.4976417 C3.89793451,22.9469287 9.45057935,18.6825046 16.2988413,16.9729433 C23.1471033,15.2633821 28.6997481,16.7554845 28.6997481,20.3050823" id="Fill-349" fill="#867259"></path>
                    <path d="M26.0320403,21.3845704 C26.0320403,24.0710238 21.8304282,27.2983364 16.6479597,28.593053 C11.4643829,29.8866545 7.26277078,28.7569835 7.26277078,26.0705302 C7.26277078,23.3829616 11.4643829,20.1567642 16.6479597,18.8620475 C21.8304282,17.5684461 26.0320403,18.6970018 26.0320403,21.3845704" id="Fill-350" fill="#77634D"></path>
                    <path d="M23.0794962,23.0985923 C23.0794962,23.0985923 20.818539,26.0515722 16.2234761,27.1990859 C12.337733,28.169287 9.5181864,26.4842596 9.5181864,26.4842596 L9.5181864,7.28654479 L22.9276574,0.949012797 L23.0794962,23.0985923" id="Fill-351" fill="#9D8973"></path>
                    <path d="M23.0794962,23.0985923 L22.9276574,0.949012797 L21.0291184,1.9783181 L17.4681108,5.65058501 L17.4681108,26.8277331 C21.2275063,25.517404 23.0794962,23.0985923 23.0794962,23.0985923" id="Fill-352" fill="#827360"></path>
                    <path d="M22.9276574,0.949012797 C22.9276574,2.45226691 19.9263476,4.36478976 16.2234761,6.37321755 C12.5206045,8.38164534 9.5181864,8.7897989 9.5181864,7.28654479 C9.5181864,5.78329068 12.5206045,3.86965265 16.2234761,1.86122486 C19.9263476,-0.146087751 22.9276574,-0.55535649 22.9276574,0.949012797" id="Fill-353" fill="#B79F86"></path>
                    <path d="M16.2234761,1.86122486 C12.5206045,3.86965265 9.5181864,5.78329068 9.5181864,7.28654479 C9.5181864,7.28654479 11.7791436,3.9945521 18.2816121,1.3850457 C21.311738,0.168391225 22.9276574,0.949012797 22.9276574,0.949012797 C22.9276574,-0.55535649 19.9263476,-0.146087751 16.2234761,1.86122486" id="Fill-354" fill="#CEB8A5"></path>
                    <path d="M22.9742065,48.2123035 C22.9742065,48.2123035 22.6406045,47.6212614 22.315869,47.8732907 C22.315869,47.8732907 22.017733,48.029415 21.6918892,48.8379159 C21.6918892,48.8379159 22.6284131,49.3888117 22.7569773,49.1289762 C22.8456423,48.953894 23.0329471,48.4007678 22.9742065,48.2123035" id="Fill-887" fill="#FABA8F"></path>
                    <path d="M21.6923162,48.8379159 C21.6923162,48.8379159 21.472627,49.6386106 21.8149853,49.7635101 C21.8149853,49.7635101 21.9967586,49.7267093 21.9164661,49.5683547 C21.8361736,49.41 21.9989889,48.992925 21.9989889,48.992925 C21.9989889,48.992925 21.9577275,48.7085558 21.6923162,48.8379159" id="Fill-888" fill="#FABA8F"></path>
                    <path d="M21.9570794,48.9148629 C21.9570794,48.9148629 21.7864579,49.7702011 22.0797485,49.840457 C22.0797485,49.840457 22.2604067,49.8036563 22.1801142,49.6453016 C22.0998217,49.486947 22.2637522,49.069872 22.2637522,49.069872 C22.2637522,49.069872 22.2224908,48.7855027 21.9570794,48.9148629" id="Fill-889" fill="#FABA8F"></path>
                    <path d="M22.220855,49.0286106 C22.220855,49.0286106 22.0513486,49.8828336 22.3435241,49.9530896 C22.3435241,49.9530896 22.5241823,49.917404 22.4438898,49.7590494 C22.3635972,49.5995795 22.5275278,49.1836197 22.5275278,49.1836197 C22.5275278,49.1836197 22.4862664,48.8992505 22.220855,49.0286106" id="Fill-890" fill="#FABA8F"></path>
                    <path d="M22.465792,48.9393967 C22.465792,48.9393967 22.2962856,49.7947349 22.5884611,49.8649909 C22.5884611,49.8649909 22.7691193,49.8281901 22.6888268,49.6698355 C22.6096494,49.5114808 22.7724648,49.0944059 22.7724648,49.0944059 C22.7724648,49.0944059 22.7312034,48.8100366 22.465792,48.9393967" id="Fill-891" fill="#FABA8F"></path>
                    <path d="M22.9532787,48.4643327 C22.9532787,48.4643327 23.098525,48.723053 23.1351138,48.9628154 C23.1650501,49.1702377 23.12957,49.384351 23.0441963,49.4077697 C22.8479474,49.4601828 22.8967325,49.1200548 22.8967325,49.1200548 L22.6239798,48.5936929 C22.6239798,48.5936929 22.6727649,48.2814442 22.9532787,48.4643327" id="Fill-892" fill="#FABA8F"></path>
                    <path d="M30.9651385,38.3987751 C30.9651385,38.3987751 29.1807557,36.7851188 28.4692191,36.6657952 C27.7576826,36.5464717 27.1747103,37.6426874 27.5881108,38.3519378 C27.9161713,38.9151005 29.6783879,39.7425594 30.3899244,40.0592687 C30.5960705,40.1518282 30.8321411,40.1518282 31.0338539,40.0514625 C31.4926952,39.8217367 32.1166751,39.2953748 30.9651385,38.3987751" id="Fill-893" fill="#EBAF86"></path>
                    <path d="M30.1904282,39.2206581 C30.1904282,39.2206581 30.8653904,40.7718647 31.6334509,39.489415 C31.6334509,39.489415 31.6600504,34.8971298 31.396272,34.3852651 L30.6603526,34.6216819 C30.6603526,34.6216819 30.0385894,38.6396527 30.1904282,39.2206581" id="Fill-894" fill="#EBAF86"></path>
                    <path d="M27.915063,58.4942048 L27.8463476,57.9210055 C27.8463476,57.9210055 28.3428715,53.1815174 27.8784887,51.1340585 C27.8784887,51.1340585 26.7413602,49.2605667 26.2138035,51.368245 C26.063073,51.9693236 26.6061461,56.3463803 26.9031738,57.6009506 C26.9031738,57.6009506 26.9020655,57.6321755 26.9098237,57.6756673 C26.9053904,57.7269653 26.8976322,57.7782633 26.8876574,57.8273309 C26.8876574,57.8273309 26.2537028,57.4403656 25.7760202,57.3790311 C25.6840302,57.3678793 25.590932,57.3255027 25.5188917,57.3935283 C25.4246851,57.4827422 25.363728,57.6990859 25.3504282,57.7782633 C25.3083123,58.0091042 25.3847859,58.3358501 25.6042317,58.5867642 C25.6962217,58.6915905 25.7305793,58.7752285 25.9212091,58.8465996 C26.4642821,59.0495612 26.2005038,58.9413894 26.4642821,59.0495612 L26.8134005,59.1822669 C27.0051385,59.3551188 27.3631234,59.4867093 27.5892191,59.4699817 C27.7288665,59.4599452 27.8541058,59.3004753 27.929471,59.1800366 C27.9782368,59.1042048 27.9959698,59.009415 27.9815617,58.9179707 L27.915063,58.4942048" id="Fill-895" fill="#EBAF86"></path>
                    <path d="M27.5870025,45.0730896 C26.9763224,44.7619561 26.2315365,44.7753382 25.9389421,45.7767642 C25.9389421,45.7767642 25.8746599,48.6405302 25.9932494,49.2761792 C26.1783375,50.2753748 26.2592443,50.8218099 26.3401511,51.2734552 C26.4121914,51.6738026 26.8255919,51.8600366 27.1126448,51.8154296 C27.54267,51.7485192 27.947204,51.5388665 27.9782368,50.9500548 C27.9937531,50.6534186 28.0846348,50.1727788 28.1766247,49.1077879 C28.2209572,48.6037294 28.5601008,47.7628885 28.3971788,46.5272761 C28.3129471,45.8938574 28.1178841,45.3429616 27.5870025,45.0730896" id="Fill-896" fill="#EBAF86"></path>
                    <path d="M25.7438791,59.7944973 L25.6829219,59.1253931 C25.6829219,59.1253931 26.3601008,53.6253565 25.9012594,51.2277331 C25.9012594,51.2277331 24.6887657,49.0085375 24.0481612,51.4440768 C23.8652897,52.13883 24.3496222,57.2519013 24.6455416,58.720585 C24.6455416,58.720585 24.6433249,58.7573857 24.6510831,58.8075686 C24.6444332,58.8677879 24.6344584,58.9268921 24.622267,58.9848812 C24.622267,58.9848812 23.9295718,58.5120475 23.4009068,58.425064 C23.3000504,58.4083364 23.1980856,58.3559232 23.1171788,58.4328702 C23.0096725,58.534351 22.9365239,58.7841499 22.9187909,58.8755941 C22.8667003,59.1432358 22.9420655,59.5246252 23.1792443,59.8246069 C23.2778841,59.9495064 23.3144584,60.0487569 23.5228212,60.1379707 C24.1202015,60.3922303 23.830932,60.2572943 24.1202015,60.3922303 L24.5036776,60.5595064 C24.7120403,60.7658135 25.1054912,60.9308592 25.3559698,60.9197075 C25.5111335,60.9130165 25.6552141,60.730128 25.7416625,60.5940768 C25.7970781,60.5059781 25.8192443,60.3978062 25.8059446,60.2896344 L25.7427708,59.7956124 L25.7438791,59.7944973" id="Fill-897" fill="#FABA8F"></path>
                    <path d="M24.888262,44.7797989 C24.1900252,44.4619744 23.3665491,44.53 23.1160705,45.7154296 C23.1160705,45.7154296 23.2523929,49.0475686 23.4286146,49.7791225 C23.7056927,50.9266362 23.8353652,51.5555941 23.9572796,52.0752651 C24.0658942,52.5347166 24.536927,52.7209506 24.8516877,52.6484644 C25.3227204,52.5402925 25.7549622,52.267075 25.7460957,51.5823583 C25.7427708,51.2355393 25.8081612,50.6701463 25.8336524,49.4267276 C25.8458438,48.8379159 26.1594962,47.8364899 25.8901763,46.411298 C25.7516373,45.6819744 25.4956171,45.0552468 24.888262,44.7797989" id="Fill-898" fill="#FABA8F"></path>
                    <path d="M25.1520403,37.7486289 C25.1520403,37.7486289 24.0891688,38.0553016 23.6979345,38.6028519 C23.1027708,39.4358867 23.5726952,42.7613346 23.4773804,44.0605119 C23.3676574,45.5526143 23.0274055,46.6599817 23.0584383,47.1395064 C23.1038791,47.8465265 25.3759194,47.9892687 26.4410076,47.7751554 C27.7610076,47.5108592 28.5667506,46.7447349 28.7097229,46.4704022 C28.7097229,46.4704022 28.2530982,45.0507861 28.3029723,43.2921572 C28.3395466,41.9706764 29.3436776,37.3783912 28.7097229,36.8687569 C28.3628212,36.5899634 27.7853904,36.7784278 27.383073,36.9557404 C25.764937,37.6683364 25.1520403,37.7486289 25.1520403,37.7486289" id="Fill-899" fill="#FABA8F"></path>
                    <path d="M25.2983375,35.8561792 C25.2983375,35.8561792 25.4147103,37.5635101 25.0101763,38.0040037 C25.0101763,38.0040037 25.6385894,38.1456307 26.6682116,37.9582815 C27.3065995,37.8411883 27.3908312,37.7319013 27.3908312,37.7319013 L27.3764232,36.2665631 L25.2983375,35.8561792" id="Fill-900" fill="#FABA8F"></path>
                    <path d="M28.443728,34.8882084 C28.443728,34.8882084 28.5357179,36.6892139 25.8857431,36.9557404 C25.555466,36.9891956 25.08,36.9390128 24.8782872,36.6234186 C24.7574811,36.4338391 24.7497229,36.1795795 24.6887657,35.8561792 C24.6555164,35.6810969 24.5779345,35.3521207 24.622267,35.1324314 C24.6688161,34.8948995 24.7475063,34.7945338 24.8073552,34.5224314 C24.8915869,34.1399269 24.7707809,33.6157952 24.9470025,33.286819 C25.4147103,32.4169835 25.9877078,32.3701463 26.7081108,32.4872395 C28.8150126,32.8295978 28.443728,34.8882084 28.443728,34.8882084" id="Fill-901" fill="#FABA8F"></path>
                    <path d="M23.2945088,42.3810603 C23.2945088,42.3810603 23.0861461,39.6745338 23.4164232,38.9742048 C23.7467003,38.2738757 24.4427204,38.3195978 24.8195466,39.1225229 C25.1963728,39.9254479 24.8860453,43.3668739 24.8860453,43.3668739 C24.8860453,43.3668739 23.4119899,44.9504205 23.2945088,42.3810603" id="Fill-902" fill="#FABA8F"></path>
                    <path d="M25.6286146,35.5127057 L25.4435264,35.8851737 C25.4025189,35.9743876 25.3570781,36.0769835 25.3116373,36.1896161 C25.3227204,36.709287 25.3027708,37.6861792 25.0101763,38.0040037 C25.0101763,38.0040037 26.1572796,37.396234 25.6286146,35.5127057" id="Fill-903" fill="#EBAF86"></path>
                    <path d="M23.458539,42.5739854 C23.458539,42.5739854 24.5391436,41.7922486 24.8860453,43.3668739 C24.8860453,43.3668739 23.4208564,47.9145521 22.9742065,48.3372029 L22.2682116,48.0160329 C22.2682116,48.0160329 23.1016625,43.1070384 23.458539,42.5739854" id="Fill-904" fill="#FABA8F"></path>
                    <path d="M28.6520907,41.3472943 C28.4503778,40.8555027 27.3054912,40.4919561 26.5884131,39.880841 C25.6020151,39.04 25.1520403,37.7486289 25.1520403,37.7486289 C24.3983879,37.6995612 23.3654408,38.0486106 23.1160705,39.0221572 L21.1011587,47.1540037 C21.1011587,47.1540037 22.0576322,49.2851005 23.4729471,48.4922121 C25.3681612,49.8025411 28.7097229,46.4704022 28.7097229,46.4704022 C28.2298237,44.2534369 28.6520907,41.3472943 28.6520907,41.3472943" id="Fill-905" fill="#E8E8E8"></path>
                    <path d="M24.7297733,36.1037477 C24.7297733,36.1037477 24.778539,36.4583729 25.0545088,36.1929616 C25.2296222,36.0256856 25.5033753,35.007532 25.5033753,35.007532 C25.5033753,35.007532 25.6685139,36.6959049 25.2983375,36.8553748 C24.9270529,37.0159598 24.7574811,36.8040768 24.7297733,36.1037477" id="Fill-906" fill="#333333"></path>
                    <path d="M24.6089673,33.0292139 C24.6089673,33.0292139 24.6787909,33.7261974 25.4257935,33.948117 C25.4257935,33.948117 25.5864987,35.3387386 25.239597,35.9565448 C25.239597,35.9565448 25.4379849,35.8227239 25.658539,35.1290859 C25.8779849,34.4354479 25.8779849,34.4354479 25.8779849,34.4354479 C25.8779849,34.4354479 26.4210579,34.5358135 26.2005038,35.0554845 C25.9788413,35.5740402 25.6286146,35.5127057 25.6286146,35.5127057 C25.6286146,35.5127057 25.7715869,37.1921572 27.4418136,36.497404 C28.7152645,35.9665814 28.6986398,34.4499452 28.4038287,33.3080073 C28.3406549,33.0593236 28.0425189,32.8753199 27.8396977,32.6968921 C27.666801,32.5441133 27.6003023,32.3891042 27.3908312,32.278702 C25.7217128,31.3977148 24.6089673,33.0292139 24.6089673,33.0292139" id="Fill-907" fill="#333333"></path>
                    <path d="M24.4139043,38.7734735 C24.3884131,38.7712431 24.3684635,38.8180804 24.3263476,39.1883181 C24.2831234,39.5574406 24.2243829,40.2521938 24.0902771,41.5413346 C23.9583879,42.8304753 23.7378338,44.4664351 23.4707305,45.7644973 C23.337733,46.4135283 23.199194,46.9778062 23.0972292,47.3814991 C22.9908312,47.7840768 22.9265491,48.0260695 22.9398489,48.0305302 C22.9453904,48.0316453 22.9697733,47.9736563 23.0085642,47.8654845 C23.0473552,47.7573126 23.1038791,47.6000731 23.1659446,47.400457 C23.2889673,47.00234 23.4474559,46.4402925 23.5970781,45.7912614 C23.898539,44.4943144 24.1401511,42.8527788 24.2731486,41.5614077 C24.4072544,40.2689214 24.444937,39.5719378 24.4549118,39.1994698 C24.4648866,38.8258867 24.4382872,38.7757038 24.4139043,38.7734735" id="Fill-908" fill="#CDCECE"></path>
                    <path d="M23.5095214,46.3053565 C23.5095214,46.3053565 23.2734509,47.2565996 23.0562217,50.1571664 C22.8401008,53.0577331 23.5095214,57.975649 23.5095214,57.975649 C23.5095214,57.975649 27.3021662,58.6269104 28.7097229,57.0344424 C28.7097229,57.0344424 29.2771788,49.5036746 28.5689673,45.6094881 C27.8596474,41.7164168 23.5095214,46.3053565 23.5095214,46.3053565" id="Fill-909" fill="#E8E8E8"></path>
                    <path d="M26.0420236,49.8672212 C26.017631,49.8716819 26.0076523,49.9162888 26.0475673,50.2419196 C26.0852648,50.5686654 26.1772911,51.1753199 26.2881662,52.3127971 C26.4001499,53.4513894 26.47111,54.906691 26.4733275,56.0787386 C26.475545,56.6642048 26.4655662,57.1771846 26.4589137,57.545192 C26.4511525,57.9131993 26.448935,58.1351188 26.4611312,58.136234 C26.4733275,58.136234 26.4999375,57.9165448 26.5298737,57.5485375 C26.5587013,57.1805302 26.5886375,56.6664351 26.6030513,56.0787386 C26.6340963,54.9033455 26.5830938,53.4391225 26.4700012,52.2960695 C26.3591262,51.1519013 26.2460336,50.5452468 26.1761824,50.2229616 C26.1030048,49.9006764 26.0675248,49.8638757 26.0420236,49.8672212" id="Fill-910" fill="#CDCECE"></path>
                    <polyline id="Fill-911" fill="#544439" points="29.5365239 33.338117 29.7681612 32.9433455 30.6958186 32.805064 30.9518388 33.1596892 31.1989924 33.6815905 30.6293199 34.1466179 29.7714861 34.0049909 29.5365239 33.338117"></polyline>
                    <polyline id="Fill-912" fill="#715C4F" points="29.7681612 32.9433455 29.9621159 33.4763985 30.555063 33.5065082 31.1989924 33.6815905 30.9518388 33.1596892 30.6958186 32.805064 29.7681612 32.9433455"></polyline>
                    <polyline id="Fill-913" fill="#544439" points="20.2699244 22.1161243 20.5004534 21.7213528 21.4292191 21.5830713 21.6852393 21.9376965 21.9323929 22.4595978 21.3627204 22.9246252 20.5037783 22.7829982 20.2699244 22.1161243"></polyline>
                    <polyline id="Fill-914" fill="#715C4F" points="20.5004534 21.7213528 20.6955164 22.2532907 21.2873552 22.2845155 21.9323929 22.4595978 21.6852393 21.9376965 21.4292191 21.5830713 20.5004534 21.7213528"></polyline>
                    <polyline id="Fill-915" fill="#544439" points="13.9625189 30.050585 14.1941562 29.6569287 15.1218136 29.517532 15.3778338 29.8732724 15.6249874 30.3951737 15.0553149 30.8602011 14.1974811 30.718574 13.9625189 30.050585"></polyline>
                    <polyline id="Fill-916" fill="#715C4F" points="14.1941562 29.6569287 14.3881108 30.1888665 14.9799496 30.2200914 15.6249874 30.3951737 15.3778338 29.8732724 15.1218136 29.517532 14.1941562 29.6569287"></polyline>
                    <polyline id="Fill-917" fill="#544439" points="17.2375819 36.6055759 17.4681108 36.2119196 18.3968766 36.0725229 18.6517884 36.4282633 18.9000504 36.9501645 18.3292695 37.415192 17.4714358 37.2735649 17.2375819 36.6055759"></polyline>
                    <polyline id="Fill-918" fill="#715C4F" points="17.4681108 36.2119196 17.6620655 36.7438574 18.2550126 36.7739671 18.9000504 36.9501645 18.6517884 36.4282633 18.3968766 36.0725229 17.4681108 36.2119196"></polyline>
                    <path d="M23.8375819,44.0515905 C23.8143073,44.0593967 23.8076574,44.0984278 23.8963224,44.3593784 C23.9417632,44.4887386 24.0104786,44.6727422 24.129068,44.9292322 C24.2487657,45.1834918 24.412796,45.5135832 24.6677078,45.9172761 C24.923728,46.3198537 25.2473552,46.7614625 25.6396977,47.1450823 C25.835869,47.3402377 26.0508816,47.5119744 26.2658942,47.6669835 C26.4820151,47.824223 26.7025693,47.9647349 26.9220151,48.0751371 C27.3597985,48.3015174 27.7887154,48.401883 28.0923929,48.434223 C28.3982872,48.4654479 28.5800504,48.4632176 28.5811587,48.453181 C28.582267,48.4386837 28.4005038,48.4163803 28.1034761,48.3628519 C27.8064484,48.3104388 27.3974811,48.1933455 26.981864,47.959159 C26.7723929,47.8454113 26.5629219,47.7015539 26.3556675,47.5443144 C26.1484131,47.3859598 25.9433753,47.214223 25.7582872,47.0246435 C25.3847859,46.6465996 25.0722418,46.2127971 24.8228715,45.8180256 C24.5735013,45.4221389 24.4072544,45.1020841 24.2820151,44.8556307 C24.1567758,44.6091773 24.0769773,44.4329799 24.0160202,44.311426 C23.8996474,44.0683181 23.8619647,44.0426691 23.8375819,44.0515905" id="Fill-919" fill="#CDCECE"></path>
                    <path d="M30.7479093,34.7198172 C30.7479093,34.7198172 31.3297733,35.0242596 31.4439295,34.6306033 C31.4439295,34.6306033 31.5902267,34.3328519 31.4029219,33.4763985 C31.4029219,33.4763985 30.3755164,33.5444241 30.4165239,33.8332541 C30.4442317,34.0295247 30.5993955,34.5960329 30.7479093,34.7198172" id="Fill-920" fill="#EBAF86"></path>
                    <path d="M31.4029219,33.4763985 C31.4029219,33.4763985 31.136927,32.6857404 30.8044332,32.7738391 C30.8044332,32.7738391 30.6836272,32.9054296 30.8321411,32.9924132 C30.9806549,33.0793967 31.0815113,33.51766 31.0815113,33.51766 C31.0815113,33.51766 31.2688161,33.7317733 31.4029219,33.4763985" id="Fill-921" fill="#EBAF86"></path>
                    <path d="M31.1557683,33.5611517 C31.1557683,33.5611517 30.8210579,32.753766 30.5561713,32.8585923 C30.5561713,32.8585923 30.4364736,32.9901828 30.5849874,33.0771664 C30.7335013,33.1641499 30.8343577,33.6035283 30.8343577,33.6035283 C30.8343577,33.6035283 31.0216625,33.8165265 31.1557683,33.5611517" id="Fill-922" fill="#EBAF86"></path>
                    <path d="M30.888665,33.6157952 C30.888665,33.6157952 30.5539547,32.8072943 30.2901763,32.9132358 C30.2901763,32.9132358 30.1693703,33.0448263 30.3178841,33.1318099 C30.466398,33.2187934 30.5672544,33.6570567 30.5672544,33.6570567 C30.5672544,33.6570567 30.7545592,33.87117 30.888665,33.6157952" id="Fill-923" fill="#EBAF86"></path>
                    <path d="M30.746801,33.8276782 C30.746801,33.8276782 30.4120907,33.0191773 30.147204,33.1251188 C30.147204,33.1251188 30.0275063,33.2567093 30.1760202,33.3436929 C30.324534,33.4306764 30.4253904,33.8689397 30.4253904,33.8689397 C30.4253904,33.8689397 30.6126952,34.083053 30.746801,33.8276782" id="Fill-924" fill="#EBAF86"></path>
                    <path d="M30.6271033,34.4978976 C30.6271033,34.4978976 30.3732997,34.365192 30.2137028,34.1845338 C30.076272,34.0284095 29.9876071,33.8310238 30.0419144,33.7641133 C30.1660453,33.6091042 30.3134509,33.9202377 30.3134509,33.9202377 L30.8121914,34.2046069 C30.8121914,34.2046069 30.9440806,34.4912066 30.6271033,34.4978976" id="Fill-925" fill="#EBAF86"></path>
                    <path d="M39.6664987,51.0303473 L39.5977834,50.4560329 C39.5977834,50.4560329 40.0943073,45.7165448 39.6299244,43.6690859 C39.6299244,43.6690859 38.4916877,41.7955941 37.964131,43.9032724 C37.8145088,44.504351 38.3564736,48.8825229 38.6546096,50.1359781 C38.6546096,50.1359781 38.6535013,50.1672029 38.6612594,50.2106947 C38.6557179,50.2631079 38.649068,50.3132907 38.6379849,50.3634735 C38.6379849,50.3634735 38.0051385,49.9753931 37.5263476,49.9151737 C37.435466,49.9029068 37.3423678,49.8605302 37.2703275,49.9285558 C37.1761209,50.0188848 37.1151637,50.2352285 37.1007557,50.3144059 C37.0597481,50.5452468 37.1351134,50.8708775 37.3556675,51.1229068 C37.4465491,51.2266179 37.4820151,51.3113711 37.6726448,51.3816271 C38.2157179,51.5845887 37.9519395,51.477532 38.2157179,51.5845887 L38.5648363,51.7184095 C38.7565743,51.8901463 39.1145592,52.0217367 39.3395466,52.0061243 C39.479194,51.9960878 39.6055416,51.8355027 39.6809068,51.7161792 C39.7285642,51.6392322 39.7474055,51.5455576 39.7329975,51.4529982 L39.6653904,51.0303473 L39.6664987,51.0303473" id="Fill-926" fill="#D6D6D6"></path>
                    <path d="M37.4942065,52.3306399 L37.4332494,51.6604205 C37.4332494,51.6604205 38.1115365,46.1614991 37.6515869,43.7627605 C37.6515869,43.7627605 36.4402015,41.5435649 35.7984887,43.9791042 C35.6156171,44.6738574 36.0999496,49.7869287 36.3969773,51.2567276 C36.3969773,51.2567276 36.3947607,51.2924132 36.4025189,51.3437112 C36.3947607,51.4039305 36.3858942,51.4630347 36.3725945,51.5199086 C36.3725945,51.5199086 35.6810076,51.0481901 35.1523426,50.9612066 C35.0514861,50.944479 34.9495214,50.8920658 34.8675063,50.9690128 C34.7611083,51.0704936 34.6879597,51.3202925 34.6691184,51.4117367 C34.618136,51.6782633 34.6935013,52.0607678 34.9306801,52.3607495 C35.0282116,52.4845338 35.0647859,52.5837843 35.2742569,52.6729982 C35.870529,52.9272578 35.5812594,52.7934369 35.870529,52.9272578 L36.254005,53.0945338 L36.2551134,53.0945338 C36.4634761,53.3019561 36.8558186,53.4670018 37.1062972,53.4558501 C37.261461,53.449159 37.4055416,53.2662706 37.4919899,53.1291042 C37.5474055,53.0421207 37.5706801,52.9328336 37.5573804,52.825777 L37.4942065,52.3306399" id="Fill-927" fill="#D6D6D6"></path>
                    <path d="M36.5089169,29.3658684 L36.5277582,30.6014808 C36.5277582,30.6014808 37.8145088,30.8523949 38.3542569,30.1420293 L37.9674559,29.3067642 C37.9674559,29.3067642 38.826398,28.4993784 38.8574307,27.3395978 C38.8884635,26.1809324 37.190529,25.1683547 36.2983375,25.5675868 C35.959194,25.7192505 35.852796,26.0091956 35.7807557,26.4474589 C35.7486146,26.6381536 35.8228715,26.9849726 35.8184383,27.1923949 C35.8117884,27.4644973 35.6499748,27.5771298 35.6599496,27.8347349 C35.6832242,28.4558867 35.8040302,28.9789031 35.9470025,29.1840951 C36.186398,29.5253382 36.5089169,29.3658684 36.5089169,29.3658684" id="Fill-928" fill="#FABA8F"></path>
                    <path d="M37.9674559,29.3067642 C37.9674559,29.3067642 37.3656423,29.5376051 36.4025189,29.517532 L36.5277582,30.6014808 C36.5277582,30.6014808 37.9330982,30.8568556 38.3542569,30.1420293 L37.9674559,29.3067642" id="Fill-929" fill="#E3A982"></path>
                    <path d="M35.5723929,37.0929068 C35.6743577,36.0401828 35.7552645,34.712011 35.5624181,34.371883 C35.2310327,33.787532 35.3130479,32.3757221 36.0611587,31.8906216 C36.8081612,31.405521 37.1816625,30.6126325 37.1816625,30.6126325 C37.1816625,30.6126325 38.1370277,30.9460695 39.0092695,30.1520658 C39.0092695,30.1520658 40.3968766,30.2457404 40.3370277,31.5727971 C40.2771788,32.8998537 39.7706801,34.3083181 39.7706801,34.7677697 C39.7706801,34.9829982 39.8316373,35.5171664 39.9081108,36.0758684 L39.9092191,36.0758684 C39.9092191,36.0758684 40.0100756,36.6111517 40.1153652,37.3717002 C40.1353149,37.479872 40.1552645,37.5713163 40.1718892,37.6382267 C40.1718892,37.6382267 40.164131,37.6449177 40.1530479,37.6549543 C40.2683123,38.5470932 40.6418136,40.336947 40.6085642,41.2781536 C40.5387406,43.1761792 40.3181864,49.8036563 40.3181864,49.8036563 C40.3181864,49.8036563 37.7225189,52.3484826 35.2387909,51.2277331 C35.2387909,51.2277331 34.9051889,40.972596 35.5723929,37.0929068" id="Fill-930" fill="#E8E8E8"></path>
                    <path d="M36.1597985,35.3710786 C36.1597985,35.3710786 36.8935013,32.8429799 36.2340554,32.3255393 C35.5746096,31.8080987 34.9716877,32.3779525 34.8918892,32.9511517 C34.8120907,33.524351 34.724534,36.1059781 34.724534,36.1059781 C34.724534,36.1059781 35.8239798,37.344936 36.1597985,35.3710786" id="Fill-931" fill="#4E4D4D"></path>
                    <path d="M34.4541058,40.5164899 C34.4541058,40.5164899 34.7378338,41.0952651 34.7976826,41.1610603 C34.8586398,41.2257404 34.7766247,41.4008227 34.7854912,41.5112249 C34.7932494,41.6205119 34.8331486,41.7788665 34.7987909,41.7889031 C34.7655416,41.7989397 34.7267506,41.7900183 34.6624685,41.7353748 C34.5981864,41.6796161 34.6070529,41.4878062 34.5959698,41.4186654 C34.5848866,41.3495247 34.4541058,41.2145887 34.4541058,41.2145887 C34.4541058,41.2145887 34.5283627,41.5580622 34.5139547,41.6294333 C34.5006549,41.7008044 34.1703778,41.6651188 34.0152141,41.6104753 C33.8611587,41.5558318 33.6162217,41.4353931 33.5752141,41.3662523 C33.5342065,41.2971115 33.5763224,40.7807861 33.6250882,40.6636929 C33.6738539,40.5465996 33.7370277,40.3871298 33.7470025,40.3269104 C33.7569773,40.2655759 33.8655919,39.8340037 33.8655919,39.8340037 L34.6026196,40.0715356 C34.6026196,40.0715356 34.4485642,40.4306216 34.4541058,40.5164899" id="Fill-932" fill="#F9B98D"></path>
                    <path d="M34.4574307,41.5714442 C34.5139547,41.6294333 34.7156675,41.8747715 34.7677582,41.8892687 C34.7788413,41.8926143 34.8320403,41.8859232 34.8320403,41.8859232 C34.8320403,41.8859232 34.7877078,42.0699269 34.6380856,42.0331261 C34.5206045,42.0052468 34.1748111,41.6026691 34.1748111,41.6026691 C34.1748111,41.6026691 34.4064484,41.5190311 34.4574307,41.5714442" id="Fill-933" fill="#F9B98D"></path>
                    <path d="M34.1271537,41.5357587 C34.1404534,41.5469104 34.5283627,41.8346252 34.550529,41.9193784 C34.5804534,42.0297806 34.4829219,42.0821938 34.4042317,42.0732724 C34.3477078,42.0676965 34.249068,42.0030165 34.1537531,41.8993053 C34.0196474,41.7532176 33.8467506,41.4788848 33.8467506,41.4788848 L34.1271537,41.5357587" id="Fill-934" fill="#F9B98D"></path>
                    <path d="M33.9099244,41.4242413 C33.9232242,41.4353931 34.1914358,41.8045155 34.2413098,41.878117 C34.2767758,41.9316453 34.213602,41.9985558 34.1349118,41.9896344 C34.0783879,41.9829433 33.9387406,41.9149177 33.8655919,41.794479 C33.7470025,41.5993236 33.6295214,41.3673675 33.6295214,41.3673675 L33.9099244,41.4242413" id="Fill-935" fill="#F9B98D"></path>
                    <path d="M33.8495949,41.319415 C33.869668,41.300457 33.9265418,41.5781353 33.9544212,41.7911335 C33.9633426,41.8546984 33.9354632,41.9082267 33.8562859,41.8993053 C33.799412,41.8937294 33.7168892,41.852468 33.6700519,41.7197623 C33.5864139,41.4844607 33.5674559,41.2625411 33.5674559,41.2625411 L33.8495949,41.319415" id="Fill-936" fill="#F9B98D"></path>
                    <path d="M40.5032746,39.9098355 C40.5032746,39.9098355 39.2741562,42.9787934 35.1556675,40.8265082 C35.1556675,40.8265082 39.0547103,38.2314991 40.5032746,39.9098355" id="Fill-937" fill="#CDCECE"></path>
                    <path d="M36.0578338,35.759159 C36.0578338,35.759159 34.9428715,34.9395064 34.7056927,36.1316271 C34.4385894,37.4821024 33.6250882,39.9365996 33.6250882,39.9365996 L34.3610076,40.4473492 C34.3610076,40.4473492 36.1453904,37.6226143 36.0578338,35.759159" id="Fill-938" fill="#4E4D4D"></path>
                    <path d="M37.9831472,42.7122669 C38.0065659,42.706691 38.0355604,42.7423766 38.1002405,43.0512797 C38.161575,43.3601828 38.2507889,43.9512249 38.2429827,45.0440951 C38.2407523,45.5905302 38.2184489,46.2083364 38.2206792,46.8283729 C38.2217944,47.4495247 38.2418675,48.0729068 38.2719772,48.6282633 C38.3020869,49.1836197 38.3433483,49.6698355 38.3723428,50.0177697 C38.4013373,50.3657038 38.4191801,50.5753565 38.405798,50.5775868 C38.3935311,50.578702 38.3522697,50.3723949 38.3009717,50.0255759 C38.2496737,49.6787569 38.1894543,49.1925411 38.142617,48.6360695 C38.0946646,48.0795978 38.0612094,47.4539854 38.0511728,46.8294881 C38.0389059,46.206106 38.0567487,45.5860695 38.0578639,45.0429799 C38.0656701,43.9579159 37.9987596,43.3824863 37.9719955,43.0735832 C37.9407706,42.7635649 37.956383,42.7178428 37.9831472,42.7122669" id="Fill-939" fill="#DADADA"></path>
                    <path d="M41.7800504,31.9028885 C41.7800504,31.9028885 39.9956675,30.288117 39.284131,30.1687934 C38.5725945,30.0494698 37.9896222,31.1456856 38.4030227,31.854936 C38.7310831,32.4180987 40.4932997,33.2455576 41.2048363,33.5622669 C41.4109824,33.6548263 41.6481612,33.6559415 41.8487657,33.5544607 C42.3076071,33.3247349 42.9315869,32.7983729 41.7800504,31.9028885" id="Fill-940" fill="#EBAF86"></path>
                    <path d="M41.0053401,32.7236563 C41.0053401,32.7236563 41.6814106,34.2759781 42.4483627,32.9924132 C42.4483627,32.9924132 42.4749622,28.400128 42.2122922,27.8882633 L41.4763728,28.1246801 C41.4763728,28.1246801 40.8535013,32.1426508 41.0053401,32.7236563" id="Fill-941" fill="#EBAF86"></path>
                    <polyline id="Fill-942" fill="#544439" points="40.3525441 26.8411152 40.583073 26.4463437 41.5118388 26.3080622 41.7678589 26.6638026 42.0150126 27.1845887 41.4453401 27.6507313 40.586398 27.5091042 40.3525441 26.8411152"></polyline>
                    <polyline id="Fill-943" fill="#715C4F" points="40.583073 26.4463437 40.7770277 26.9793967 41.3699748 27.0095064 42.0150126 27.1845887 41.7678589 26.6638026 41.5118388 26.3080622 40.583073 26.4463437"></polyline>
                    <path d="M41.5628212,28.2228154 C41.5628212,28.2228154 42.1446851,28.5272578 42.2588413,28.1347166 C42.2588413,28.1347166 42.4062469,27.8358501 42.2189421,26.9793967 C42.2189421,26.9793967 41.1915365,27.0485375 41.2314358,27.3362523 C41.2591436,27.5325229 41.4154156,28.0990311 41.5628212,28.2228154" id="Fill-944" fill="#EBAF86"></path>
                    <path d="M42.2189421,26.9793967 C42.2189421,26.9793967 41.9529471,26.1887386 41.6193451,26.2779525 C41.6193451,26.2779525 41.4996474,26.4084278 41.6481612,26.4954113 C41.7955668,26.5835101 41.8975315,27.0217733 41.8975315,27.0217733 C41.8975315,27.0217733 42.083728,27.2347715 42.2189421,26.9793967" id="Fill-945" fill="#EBAF86"></path>
                    <path d="M41.9706801,27.0641499 C41.9706801,27.0641499 41.6359698,26.2567642 41.3721914,26.3627057 C41.3721914,26.3627057 41.2524937,26.493181 41.3998992,26.5812797 C41.5484131,26.6682633 41.6492695,27.1065265 41.6492695,27.1065265 C41.6492695,27.1065265 41.8365743,27.3206399 41.9706801,27.0641499" id="Fill-946" fill="#EBAF86"></path>
                    <path d="M41.7046851,27.1187934 C41.7046851,27.1187934 41.3688665,26.3114077 41.1050882,26.4173492 C41.1050882,26.4173492 40.9853904,26.5478245 41.1339043,26.634808 C41.2813098,26.7229068 41.3832746,27.16117 41.3832746,27.16117 C41.3832746,27.16117 41.569471,27.3741682 41.7046851,27.1187934" id="Fill-947" fill="#EBAF86"></path>
                    <path d="M41.5617128,27.3306764 C41.5617128,27.3306764 41.2270025,26.5232907 40.9632242,26.6292322 C40.9632242,26.6292322 40.8435264,26.7597075 40.990932,26.8478062 C41.1394458,26.9347898 41.2403023,27.373053 41.2403023,27.373053 C41.2403023,27.373053 41.4276071,27.5871664 41.5617128,27.3306764" id="Fill-948" fill="#EBAF86"></path>
                    <path d="M41.4420151,28.0008958 C41.4420151,28.0008958 41.1882116,27.8681901 41.0297229,27.687532 C40.8922922,27.5325229 40.8036272,27.3340219 40.8579345,27.2671115 C40.9820655,27.1121024 41.1283627,27.4232358 41.1283627,27.4232358 L41.6271033,27.7076051 C41.6271033,27.7076051 41.7589924,27.9953199 41.4420151,28.0008958" id="Fill-949" fill="#EBAF86"></path>
                    <path d="M35.2609572,31.3341499 C35.4859446,30.9482998 36.2274055,30.4375503 36.395869,30.0026325 C36.4679093,29.8175137 36.2174307,29.5253382 36.2174307,29.5253382 C36.4789924,29.1907861 36.7416625,28.1614808 36.6862469,27.7109506 C36.6696222,27.6841865 36.0667003,26.6771846 35.6455416,26.390585 C35.480403,26.2790676 35.9802519,25.5062523 35.9802519,25.5062523 L35.9824685,25.5095978 C36.2850378,25.0278428 36.9677582,24.3698903 38.2301259,24.6598355 C39.2353652,24.8917916 39.8161209,26.0627239 39.8737531,26.8188117 C39.9768262,28.1614808 39.4692191,28.6153565 39.4947103,29.0324314 C39.5213098,29.4573126 41.2092695,27.5146801 41.8964232,28.0611152 C42.6279093,28.644351 43.1188917,29.4561974 43.4480605,30.2970384 C44.244937,32.3288848 44.1130479,34.609415 43.1853904,36.5843876 C42.2843325,38.5013711 40.7160705,40.876691 38.418539,41.0740768 C36.3238287,41.2547349 34.4928967,41.0919196 33.6051385,40.1908592 C33.6051385,40.1908592 34.337733,32.9110055 35.2609572,31.3341499" id="Fill-950" fill="#E8E8E8"></path>
                    <path d="M36.3770277,30.1687934 C36.3770277,30.1687934 36.3581864,30.1576417 36.3271537,30.1364534 C36.3548615,30.0918464 36.378136,30.0461243 36.395869,30.0026325 C36.4679093,29.8175137 36.2174307,29.5253382 36.2174307,29.5253382 C36.4789924,29.1907861 36.7416625,28.1614808 36.6862469,27.7109506 C36.6862469,27.7109506 37.1273552,29.6814625 36.3770277,30.1687934" id="Fill-951" fill="#DADADA"></path>
                    <path d="M39.5722922,29.1673675 C39.5445844,29.1907861 39.5722922,29.2554662 39.8671033,29.6669653 C39.933602,29.7740219 40.0145088,29.9056124 40.1142569,30.0639671 C40.1563728,30.1476051 40.2040302,30.2379342 40.2550126,30.3360695 C40.3071033,30.4342048 40.3625189,30.5412614 40.409068,30.6628154 C40.6174307,31.135649 40.8280101,31.7902559 40.8978338,32.6723583 C40.973199,33.5533455 40.8612594,34.5692687 40.6085642,35.5539671 C40.3547607,36.5397806 39.969068,37.4954845 39.5612091,38.3129068 C39.1566751,39.1325594 38.7288665,39.8150457 38.4063476,40.2889945 C38.2434257,40.5242962 38.105995,40.7071846 38.0084635,40.8309689 C37.9098237,40.9525229 37.8532997,41.0093967 37.8588413,41.0172029 C37.8632746,41.023894 37.9342065,40.9770567 38.0472544,40.8644241 C38.1580856,40.7506764 38.3099244,40.5755941 38.4861461,40.3469835 C38.8374811,39.887532 39.2918892,39.2139671 39.720806,38.3943144 C40.1541562,37.5791225 40.5631234,36.6167276 40.8346599,35.6130713 C41.1061965,34.6127605 41.2292191,33.5667276 41.1516373,32.6522852 C41.0784887,31.7378428 40.8523929,31.0542413 40.6229723,30.5669104 C40.5719899,30.442011 40.5110327,30.3327239 40.4534005,30.2323583 C40.3957683,30.1331079 40.3436776,30.0405484 40.2949118,29.9557952 C40.1840806,29.7963254 40.0909824,29.6669653 40.0134005,29.5621389 C39.6731486,29.1662523 39.5977834,29.1461792 39.5722922,29.1673675" id="Fill-952" fill="#DFDFDF"></path>
                    <path d="M37.2670025,34.0228336 C37.2370781,34.006106 37.2005038,34.0272943 37.0553149,34.2782084 C36.9189924,34.532468 36.6906801,35.0287203 36.4113854,35.983309 C36.2684131,36.4594881 36.1210076,37.0014625 35.9481108,37.5356307 C35.7729975,38.0675686 35.5613098,38.5883547 35.3141562,39.0176965 C35.0503778,39.4604205 34.8885642,39.8964534 34.8276071,40.2165082 C34.7622166,40.5365631 34.7677582,40.7328336 34.7832746,40.7339488 C34.8032242,40.7361792 34.830932,40.5432541 34.9229219,40.2399269 C35.0126952,39.9354845 35.1922418,39.5306764 35.4682116,39.1113711 C35.7452897,38.6786837 35.9791436,38.1478611 36.1697733,37.6103473 C36.3581864,37.0717185 36.5133501,36.5297441 36.6541058,36.0569104 C36.9322922,35.110128 37.1251385,34.6261426 37.2171285,34.3573857 C37.3168766,34.0942048 37.2980353,34.0406764 37.2670025,34.0228336" id="Fill-953" fill="#DFDFDF"></path>
                </g>
            </g>
        </g>
    </g>
</svg>