<?xml version="1.0" encoding="UTF-8"?>
<svg width="70px" height="44px" viewBox="0 0 70 44" version="1.1" xmlns="http://www.w3.org/2000/svg" xmlns:xlink="http://www.w3.org/1999/xlink">
    <!-- Generator: Sketch 51.1 (57501) - http://www.bohemiancoding.com/sketch -->
    <title>Group 5</title>
    <desc>Created with Sketch.</desc>
    <defs></defs>
    <g id="App" stroke="none" stroke-width="1" fill="none" fill-rule="evenodd">
        <g id="Main" transform="translate(-29.000000, -139.000000)">
            <g id="Timeline" transform="translate(16.000000, 105.000000)">
                <g id="Group-5" transform="translate(13.000000, 34.000000)">
                    <polyline id="Fill-685" fill="#926342" points="54.5545639 8.57387528 58.0133874 5.01159515 61.3728195 3.34719124 64.5476673 5.48025964 67.7239351 7.61289808 67.4754564 11.441758 63.9953347 16.8718166 60.9454361 19.243087 53.5294118 15.0205202 54.5545639 8.57387528"></polyline>
                    <polyline id="Fill-686" fill="#7B5336" points="65.8823529 10.751517 67.6926978 7.50354303 69.8963489 14.8499665 65.8823529 10.751517"></polyline>
                    <polyline id="Fill-687" fill="#A5704C" points="53.9908722 12.0898622 60.1318458 16.1038948 60.935497 19.4210935 53.5294118 14.9914258 53.9908722 12.0898622"></polyline>
                    <polyline id="Fill-688" fill="#926342" points="60.9127789 19.2953997 60.9127789 10.9192043 64.3361055 9.22341274 69.8991886 14.9054323 63.9669371 16.8179274 60.9127789 19.2953997"></polyline>
                    <polyline id="Fill-689" fill="#734D32" points="57.505071 12.5758688 60.8020284 10.9432824 60.7963489 19.4203769 57.505071 12.5758688"></polyline>
                    <polyline id="Fill-690" fill="#BA7D56" points="57.9310345 5.01159515 61.1981744 7.24140622 64.4653144 5.48025964 61.2904665 3.34719124 57.9310345 5.01159515"></polyline>
                    <polyline id="Fill-691" fill="#A5704C" points="54.3813387 10.3850414 57.7549696 8.71361469 57.925355 4.92373847 54.4665314 8.4860186 54.3813387 10.3850414"></polyline>
                    <polyline id="Fill-692" fill="#A5704C" points="60.9127789 10.9192043 62.7387424 13.0230349 67.0551724 12.0005723 64.3361055 9.22341274 60.9127789 10.9192043"></polyline>
                    <polyline id="Fill-693" fill="#7B5336" points="61.2521298 7.25817495 60.9127789 10.9898622 64.3361055 9.29407072 66.9983773 7.16186225 64.5192698 5.49702837 61.2521298 7.25817495"></polyline>
                    <polyline id="Fill-694" fill="#926342" points="53.363002 5.72863749 47.9686004 2.82635736 42.4501014 0.0507742996 31.9723935 7.05480036 27.4036511 16.5744225 35.3582353 24.1878557 43.9614199 24.901315 53.8670588 11.8151131 53.363002 5.72863749"></polyline>
                    <polyline id="Fill-695" fill="#926342" points="53.6452738 23.2093932 49.2511765 26.0266831 43.8262475 24.8035691 43.4482759 18.5916864 48.0288032 15.5296017 54.261501 20.4296538 53.6452738 23.2093932"></polyline>
                    <polyline id="Fill-696" fill="#7B5336" points="50.9844219 17.8227613 43.7322515 22.0827352 43.8993712 24.8303704 49.4187221 27.6062401 54.5603854 24.1702271 50.9844219 17.8227613"></polyline>
                    <polyline id="Fill-697" fill="#A5704C" points="59.6831643 20.7409502 58.5643002 17.4514127 56.7340771 16.246214 51.2576065 18.6887157 54.541785 24.1778232 59.6831643 20.7409502"></polyline>
                    <polyline id="Fill-698" fill="#A5704C" points="58.5750913 17.4264746 58.6986207 14.192403 56.3671805 10.0086766 53.293144 5.64035085 44.5841785 11.419973 47.7705274 19.6886766 58.5750913 17.4264746"></polyline>
                    <polyline id="Fill-699" fill="#BA7D56" points="47.8606897 2.82635736 42.7502637 6.37989482 37.2008114 3.48764726 42.3421907 0.0507742996 47.8606897 2.82635736"></polyline>
                    <polyline id="Fill-700" fill="#A5704C" points="43.1282353 12.4817059 37.986572 15.9187222 32.6158824 13.1597645 32.0892495 6.93025313 43.1282353 12.4817059"></polyline>
                    <polyline id="Fill-701" fill="#A5704C" points="43.8377485 24.8945789 43.4597769 18.6826961 32.7991886 19.3435561 35.2345639 24.1811196 43.8377485 24.8945789"></polyline>
                    <polyline id="Fill-702" fill="#BA7D56" points="58.7459026 14.267074 49.127789 16.7712043 56.4144625 10.0833476 58.7459026 14.267074"></polyline>
                    <polyline id="Fill-703" fill="#7B5336" points="42.7799391 6.38276127 43.1282353 12.4788394 32.0892495 6.92738668 37.2304868 3.49051371 42.7799391 6.38276127"></polyline>
                    <polyline id="Fill-704" fill="#7B5336" points="32.92286 19.2567026 29.7173428 11.6598948 27.4036511 16.4808329 35.3582353 24.0942662 32.92286 19.2567026"></polyline>
                    <polyline id="Fill-705" fill="#A5704C" points="35.2129817 29.3202336 37.1374848 26.2280512 39.072211 25.3448981 40.564787 26.2280512 44.4125152 23.9856277 45.9394523 29.3202336 40.576856 32.4453802 35.2129817 29.3202336"></polyline>
                    <polyline id="Fill-706" fill="#926342" points="40.6085193 26.2280512 40.6205882 32.4453802 45.9831846 29.3202336 44.4562475 23.9856277 40.6085193 26.2280512"></polyline>
                    <polyline id="Fill-707" fill="#7B5336" points="37.9107505 30.8566505 40.5694726 27.7448329 42.4848884 27.2820447 44.7893509 29.9605984 40.5815416 32.4127026 37.9107505 30.8566505"></polyline>
                    <polyline id="Fill-708" fill="#BA7D56" points="39.0466531 25.3344355 41.0184381 22.8390479 44.3869574 23.9751652 40.5392292 26.2175886 39.0466531 25.3344355"></polyline>
                    <path d="M15.2049087,17.4494208 C15.2049087,17.4494208 13.9088438,16.997525 13.6308316,18.6468801 C13.6308316,18.6468801 15.7979919,22.775284 16.4051318,23.0973296 L17.2630223,22.6194925 C17.2630223,22.6194925 15.7093915,17.9020332 15.2049087,17.4494208" id="Fill-733" fill="#EBAF86"></path>
                    <path d="M17.0744625,22.265758 C17.3379919,22.5770544 17.2873022,22.6501489 17.4913387,22.6201945 C17.6952333,22.5903834 17.8312576,22.5244551 18.0289047,22.604429 C18.2266937,22.684403 18.5954361,22.9416668 18.7059026,23.1395951 C18.8165112,23.3373802 19.1733266,23.7866961 19.1635294,23.8444551 C19.1537323,23.9020707 19.2443205,23.9986701 19.1149696,24.1153346 C18.9856187,24.2318557 18.9457201,24.2040512 18.8669168,24.2565072 C18.7881136,24.3088199 18.8400811,24.3872173 18.6982353,24.48353 C18.5960041,24.5528981 18.5468763,24.5011587 18.4439351,24.5650805 C18.3409939,24.628859 18.3228195,24.6556603 18.2337931,24.7049632 C18.0729209,24.7942531 18.0314604,24.6960772 17.9519473,24.7270349 C17.8649087,24.7610023 17.8396349,24.8329502 17.7180933,24.8802466 C17.5569371,24.9427352 17.266146,24.768885 17.1099594,24.5372759 C17.0020487,24.3770414 16.7223327,24.0418101 16.5878702,23.7611847 C16.4532657,23.480416 16.4240162,23.1953476 16.2889858,23.0203508 C16.1538134,22.8452108 16.0446247,22.6967287 16.0446247,22.6967287 L17.0744625,22.265758" id="Fill-734" fill="#EBAF86"></path>
                    <path d="M15.7260716,18.7298985 C15.7260716,18.7298985 17.6843678,15.9693643 17.8458079,15.0465109 C18.0071061,14.1236574 17.4894185,13.4705369 16.5777146,13.9985369 C15.8889316,14.3974034 14.4869438,16.4662633 13.842745,17.4536118 C13.5988099,17.8276835 13.562603,18.3020809 13.7490331,18.7085434 C14.0554428,19.3769995 14.6733738,20.0765565 15.7260716,18.7298985" id="Fill-735" fill="#EBAF86"></path>
                    <path d="M20.4821104,40.292362 L20.8110962,39.6055607 C20.8110962,39.6055607 21.6343417,34.0906551 23.100082,31.7188115 C23.100082,31.7188115 25.8665729,29.2591112 25.7004472,32.0665118 C25.6531652,32.8676844 23.1196764,38.1031112 22.2041388,39.5512415 C22.2041388,39.5512415 22.1926378,39.5903685 22.1640983,39.6413913 C22.1491895,39.7073196 22.1382565,39.7733913 22.1315831,39.8388897 C22.1315831,39.8388897 23.1381348,39.587932 23.8024958,39.6863945 C23.929149,39.7051698 24.0715628,39.6863945 24.139149,39.7970395 C24.2280334,39.9429418 24.220366,40.2335998 24.2065932,40.3370786 C24.1662687,40.6383424 23.9302849,41.0151372 23.532435,41.2474629 C23.3673031,41.3437757 23.2858021,41.4353587 23.0019684,41.4542773 C22.1923538,41.5087398 22.5890678,41.4707594 22.1923538,41.5087398 L21.6705486,41.5471502 L21.6701226,41.5472936 C21.3425567,41.6911893 20.8098183,41.7238669 20.5154776,41.6223945 C20.3325973,41.5591893 20.230508,41.3141079 20.1793924,41.1379646 C20.1468772,41.0257431 20.161076,40.9024857 20.218581,40.793704 L20.4826784,40.2929353 L20.4821104,40.292362" id="Fill-736" fill="#EBAF86"></path>
                    <path d="M17.1339059,24.9052539 C17.4096463,24.0481855 18.4098086,24.4586611 19.7011879,25.0530194 C19.7011879,25.0530194 22.651127,27.491508 23.1791798,28.1602506 C24.0085307,29.2103744 25.0393623,30.3129542 25.4174759,30.7852018 C25.7519992,31.2031301 25.8935611,31.9001073 25.5708228,32.1374493 C25.089484,32.4913125 24.1772122,32.8701138 23.5545956,32.3865438 C23.2402345,32.1424656 22.2410662,31.0835992 21.0787538,30.2432995 C20.528125,29.845293 19.1846362,29.4601855 17.7852041,28.4405894 C17.1045145,27.9445503 16.8942305,25.6501008 17.1339059,24.9052539" id="Fill-737" fill="#EBAF86"></path>
                    <path d="M14.624734,42.2111581 L15.0552411,41.4541288 C15.0552411,41.4541288 17.3682229,34.4063894 19.2207381,31.8277314 C19.2207381,31.8277314 21.6515697,30.2431581 21.1984866,33.4674839 C21.0691356,34.3876141 17.7591154,39.9720311 16.6050383,41.5441353 C16.6050383,41.5441353 16.5887097,41.5881353 16.5520768,41.6438878 C16.5293588,41.7185588 16.5109003,41.7935164 16.4971275,41.8684741 C16.4971275,41.8684741 17.6372898,41.6890343 18.3646934,41.8756402 C18.5034156,41.9111842 18.6631519,41.9050213 18.7273304,42.0403177 C18.8119551,42.2186109 18.7756062,42.5534122 18.7503324,42.6713666 C18.6767827,43.0149106 18.3790342,43.4242396 17.9155859,43.6488259 C17.7233344,43.7419855 17.6242269,43.8388715 17.3075941,43.8296988 C16.4045515,43.8037575 16.8481214,43.8034708 16.4045515,43.8037575 L15.8222594,43.7908584 L15.8218334,43.7910018 C15.4448557,43.9212819 14.8509206,43.9006435 14.5342878,43.7510148 C14.3374926,43.6579985 14.2477563,43.3637575 14.2079997,43.1547933 C14.1825839,43.0216467 14.2102715,42.8807607 14.2843892,42.7613731 L14.625302,42.2120181 L14.624734,42.2111581" id="Fill-738" fill="#FABA8F"></path>
                    <path d="M22.0739852,24.6015337 C23.1286708,24.435853 23.9622813,24.7052992 23.9117336,26.2689474 C23.9117336,26.2689474 22.8899892,30.4773253 22.4085085,31.3329604 C21.6521393,32.6766087 21.2683462,33.4200223 20.9305572,34.0292862 C20.6316728,34.5684653 19.9301109,34.6455728 19.5250196,34.4507976 C18.9207194,34.1602829 18.4233361,33.6762829 18.6610237,32.8222243 C18.7808614,32.3911103 18.878691,31.6617422 19.2548168,30.0990973 C19.4330115,29.35898 19.3357499,28.0032927 20.1733361,26.3115142 C20.6025653,25.4446999 21.1575957,24.7455728 22.0739852,24.6015337" id="Fill-739" fill="#FABA8F"></path>
                    <path d="M20.9845233,12.5198297 C20.9845233,12.5198297 20.8635497,14.7268525 21.3928803,15.28796 C21.3928803,15.28796 20.5853955,15.481302 19.2575254,15.2574323 C18.4347059,15.1186961 18.3236714,14.9783834 18.3236714,14.9783834 L18.31643,13.0866701 L20.9845233,12.5198297" id="Fill-740" fill="#FABA8F"></path>
                    <path d="M16.9354773,11.2777394 C16.9354773,11.2777394 16.8487227,13.6034332 20.263814,13.9009707 C20.6886416,13.9379479 21.2994732,13.8652834 21.5540574,13.4542346 C21.7068363,13.2075766 21.7112379,12.8792248 21.7852136,12.4602932 C21.8249702,12.234417 21.9181142,11.8076026 21.8577694,11.5241108 C21.7930229,11.2192639 21.6902237,11.0902736 21.6084387,10.7405668 C21.4934286,10.2485407 21.640102,9.56876224 21.4071,9.14739416 C20.7911568,8.03277527 20.0519681,7.98246908 19.1267754,8.14628667 C16.4217653,8.62527038 16.9354773,11.2777394 16.9354773,11.2777394" id="Fill-741" fill="#FABA8F"></path>
                    <path d="M24.5378989,20.4722908 C24.5378989,20.4722908 23.9399881,17.0196524 23.3058705,16.2500107 C22.6717528,15.4802257 21.8189739,15.7608511 21.6035784,16.8869358 C21.3883248,18.0130205 22.8657082,22.2169553 22.8657082,22.2169553 C22.8657082,22.2169553 25.2065195,23.7232745 24.5378989,20.4722908" id="Fill-742" fill="#FABA8F"></path>
                    <path d="M20.6094567,12.0898622 L20.8542437,12.5666961 C20.909051,12.6817841 20.9688279,12.8136407 21.0294567,12.9572499 C21.0240612,13.628429 21.0673675,14.8900968 21.4493147,15.2951261 C21.4493147,15.2951261 19.9621342,14.530644 20.6094567,12.0898622" id="Fill-743" fill="#EBAF86"></path>
                    <path d="M21.7796511,12.7740837 C21.7796511,12.7740837 21.7232819,13.2340056 21.3626328,12.8961945 C21.1355943,12.6833606 20.7645801,11.3732499 20.7645801,11.3732499 C20.7645801,11.3732499 20.5812738,13.5553346 21.0614766,13.7554127 C21.5418215,13.9553476 21.7555131,13.6797385 21.7796511,12.7740837" id="Fill-745" fill="#333333"></path>
                    <path d="M21.8252441,8.7774532 C21.8252441,8.7774532 21.7467248,9.67880825 20.7901528,9.97806558 C20.7901528,9.97806558 20.6075565,11.776476 21.0643313,12.5690493 C21.0643313,12.5690493 20.8070494,12.3997855 20.5115727,11.507603 C20.216238,10.6152773 20.216238,10.6152773 20.216238,10.6152773 C20.216238,10.6152773 19.5189358,10.7558767 19.8122826,11.4217529 C20.1059135,12.0882024 20.5560149,12.0027822 20.5560149,12.0027822 C20.5560149,12.0027822 20.4013901,14.1739744 18.2396254,13.3054402 C16.5919987,12.643577 16.5863191,10.6842154 16.9454064,9.20527079 C17.0237836,8.88308187 17.4033171,8.64000695 17.660883,8.40624799 C17.8815321,8.20616982 17.964453,8.00437177 18.2318161,7.85803952 C20.3641893,6.69153789 21.8252441,8.7774532 21.8252441,8.7774532" id="Fill-746" fill="#333333"></path>
                    <path d="M28.2633874,22.8221395 C28.6674848,22.8572535 28.6822515,22.9449668 28.8066329,22.7792861 C28.9311562,22.613462 28.9821298,22.4701395 29.178641,22.3870124 C29.3750101,22.3038854 29.8165923,22.225918 30.0329817,22.2884066 C30.2492292,22.3508952 30.8157606,22.4181134 30.8489858,22.4661265 C30.882211,22.5141395 31.0138337,22.5188691 31.0027586,22.6935792 C30.9916836,22.868146 30.9439757,22.8767453 30.9243813,22.9697616 C30.904645,23.0629212 30.9962272,23.0818398 30.9621501,23.2511036 C30.9375862,23.3729278 30.8665923,23.3709212 30.8377688,23.4893056 C30.8089452,23.60769 30.8144828,23.6396509 30.7855172,23.7379701 C30.7329817,23.9154033 30.6350101,23.8749864 30.5999391,23.9533838 C30.5616024,24.0392339 30.5936917,24.1083154 30.5398783,24.228133 C30.4686004,24.3867909 30.1407505,24.469058 29.8684178,24.4147388 C29.680142,24.3771883 29.247789,24.3366281 28.956714,24.2320027 C28.6656389,24.1273773 28.4465517,23.9450711 28.2286004,23.9161199 C28.0106491,23.8873121 27.8296146,23.8587909 27.8296146,23.8587909 L28.2633874,22.8221395" id="Fill-747" fill="#FABA8F"></path>
                    <path d="M21.1973725,14.9332439 C21.1973725,14.9332439 22.5716727,15.3107553 23.0845328,16.0105989 C23.8651819,17.0760582 23.3169668,21.3778823 23.4625044,23.0531787 C23.629766,24.9784296 23.8789547,24.9960582 23.8477173,25.6149247 C23.8017133,26.5290354 21.0883259,28.1594719 19.7135997,27.9024947 C18.0098877,27.5840322 17.2194415,25.8389377 17.0311656,25.487081 C17.0311656,25.487081 17.3333157,24.4168921 17.2396038,22.1476673 C17.1690358,20.4418432 16.1066829,14.5272113 16.9138837,13.8574654 C17.3546139,13.4915631 18.1020378,13.7250354 18.6217133,13.9460387 C20.7174537,14.8376478 21.1973725,14.9332439 21.1973725,14.9332439" id="Fill-748" fill="#FABA8F"></path>
                    <path d="M16.6893915,17.9709387 C16.6893915,17.9709387 19.9879108,15.5711472 21.1428398,14.9567238 C21.1428398,14.9567238 22.3953144,14.9065609 23.3254767,15.913258 C23.7527181,16.3757596 24.0642394,16.7870951 24.2762272,17.0966716 C24.5218661,17.4556944 27.3364909,21.5249062 28.256714,21.7841765 C28.256714,21.7841765 28.1618661,22.2552775 27.2798377,24.0016619 C26.7206897,25.108398 24.6373022,27.9530625 24.6373022,27.9530625 C24.6373022,27.9530625 25.9891684,30.7353817 26.1002028,31.4653231 C26.3391684,33.0364241 25.1353955,38.6313036 25.1353955,38.6313036 C25.1353955,38.6313036 20.2309939,40.9058312 19.2247262,41.1517726 C18.0997566,41.4266651 14.6247465,41.6842156 14.6247465,41.6842156 C14.6247465,41.6842156 14.6552738,39.5924241 15.2262069,37.2564111 C15.7164909,35.2507563 16.2029412,33.6054143 16.2682556,32.4754599 C16.4348073,29.5961114 15.8756592,26.7395511 16.2915416,25.693297 C16.2915416,25.693297 16.298499,22.041297 16.2915416,21.104828 C16.2855781,20.3149778 16.6893915,17.9709387 16.6893915,17.9709387" id="Fill-749" fill="#E8E8E8"></path>
                    <path d="M23.090211,15.5304696 C23.0609615,15.521297 23.0239027,15.5774794 22.868284,16.0568931 C22.7943084,16.2978181 22.6903733,16.6448019 22.5624423,17.1472905 C22.5002516,17.3983914 22.4288317,17.6873296 22.3466208,18.0198377 C22.2636999,18.350626 22.168426,18.7219745 22.0180609,19.1255706 C21.7180406,19.9333361 21.2094402,20.7882546 20.6768439,21.627551 C20.1438216,22.4651276 19.5390954,23.2624305 18.8963165,23.8692579 C18.2570873,24.4800983 17.5996836,24.9011797 17.1156471,25.1710559 C16.6291968,25.4389256 16.3207993,25.5726455 16.3287506,25.5908475 C16.3317323,25.5980136 16.4113875,25.5709256 16.5549372,25.5151732 C16.6994808,25.4617139 16.9039433,25.3702742 17.1558297,25.2478768 C17.6564788,24.9994989 18.3377364,24.5926064 19.0032333,23.9849191 C19.671854,23.3813882 20.3004341,22.5792123 20.8479392,21.7396292 C21.1222597,21.3198377 21.3860731,20.8958898 21.6234767,20.471082 C21.8615903,20.0477074 22.0710224,19.6216097 22.2253631,19.2042546 C22.3806978,18.7871862 22.4765396,18.4060918 22.5571887,18.0725804 C22.6345721,17.7394989 22.7017323,17.4498442 22.7600893,17.1978833 C22.8777972,16.6989778 22.9601502,16.3492709 23.0185072,16.1011797 C23.1350792,15.6127367 23.1193185,15.5394989 23.090211,15.5304696" id="Fill-750" fill="#DADADA"></path>
                    <path d="M24.6009228,27.8581091 C24.5747971,27.8422003 24.5253853,27.8837639 24.2631338,28.2756075 C24.1990973,28.3745 24.1097869,28.4875815 24.0089756,28.6303306 C23.9580019,28.7011319 23.9024847,28.7785261 23.8418559,28.862513 C23.7781034,28.9442069 23.7089553,29.0326368 23.6341277,29.1280896 C23.3396449,29.5133404 22.9294421,29.9954772 22.3617748,30.5904088 C21.7924036,31.1836205 21.1080222,31.8234121 20.3779208,32.4154772 C19.6499492,33.0098355 18.8813691,33.5606238 18.1755476,34.0185391 C17.4727078,34.4823306 16.8236815,34.8359072 16.362221,35.093601 C16.128935,35.2164284 15.942221,35.3150342 15.8123021,35.3835424 C15.6840871,35.4533404 15.615507,35.4946173 15.6187727,35.5016401 C15.6218965,35.5086629 15.696866,35.4810016 15.8313285,35.4242459 C15.965649,35.366917 16.1607403,35.28293 16.4012677,35.1711385 C16.8766429,34.9362329 17.541004,34.6018616 18.2591784,34.1521157 C18.9804766,33.7083893 19.7645334,33.1666303 20.5059938,32.5758551 C21.2493001,31.9875163 21.9448985,31.3458616 22.5206591,30.7462003 C23.0945739,30.1445326 23.5053447,29.6522199 23.7951419,29.2546433 C23.8679817,29.1558942 23.9354259,29.0645977 23.9980425,28.9800375 C24.0559735,28.8924674 24.109361,28.8119202 24.1584888,28.7379658 C24.2541886,28.5886238 24.3369675,28.4690929 24.3934786,28.3631775 C24.6256287,27.943816 24.6270486,27.8741613 24.6009228,27.8581091" id="Fill-751" fill="#DADADA"></path>
                    <path d="M5.98083064,39.0355412 L6.28922821,38.3875803 C6.28922821,38.3875803 7.14910651,33.1693523 8.50750407,30.9340949 C8.50750407,30.9340949 11.0246643,28.6266031 10.8121085,31.285235 C10.7513377,32.0436975 8.37715924,36.9831633 7.5294919,38.3475933 C7.5294919,38.3475933 7.51827486,38.3845705 7.49172314,38.4327269 C7.47709839,38.4950721 7.46573937,38.5575607 7.458356,38.6196194 C7.458356,38.6196194 8.35926878,38.3901601 8.94795032,38.4889093 C9.0601207,38.5078278 9.18719981,38.4912024 9.24470488,38.5965444 C9.3203844,38.7354239 9.30689555,39.0108897 9.29212882,39.1086356 C9.24924849,39.3938474 9.03072922,39.7488571 8.671642,39.9655607 C8.52255478,40.0555672 8.44786918,40.1415607 8.19498886,40.1573262 C7.47369068,40.2021861 7.82738237,40.1695086 7.47369068,40.2021861 L7.00882253,40.2342904 L7.00839657,40.2342904 C6.71362983,40.3681536 6.23924849,40.3946682 5.97983673,40.295919 C5.81853855,40.234577 5.73334586,40.0015347 5.6920274,39.8342773 C5.66575965,39.7276454 5.68123632,39.6109809 5.73476573,39.508362 L5.98125661,39.0361145 L5.98083064,39.0355412" id="Fill-769" fill="#B9BABA"></path>
                    <path d="M3.36415773,24.4103981 C3.62214961,23.6532254 4.50446199,24.0333166 5.64263643,24.5812385 C5.64263643,24.5812385 8.22653095,26.7929909 8.68557761,27.395232 C9.40644982,28.3408737 10.3056587,29.3362482 10.6343606,29.7616294 C10.9252936,30.1381375 11.0404458,30.7594404 10.7502226,30.9652515 C10.3173017,31.2723916 9.50101371,31.5947238 8.9552125,31.1555837 C8.67961412,30.9338639 7.80795083,29.977903 6.78805225,29.2134209 C6.30486767,28.8513883 5.11713947,28.4884958 3.88937071,27.5611994 C3.29202791,27.1101636 3.13995895,25.0683916 3.36415773,24.4103981" id="Fill-770" fill="#EBAF86"></path>
                    <path d="M0.947742207,40.5738251 L1.3316773,39.8510498 C1.3316773,39.8510498 3.39816817,33.1424114 5.04920265,30.6752583 C5.04920265,30.6752583 7.21295519,29.1429977 6.80573409,32.2045091 C6.68944606,33.0782029 3.73822902,38.4123788 2.70995316,39.9168348 C2.70995316,39.9168348 2.69532841,39.958685 2.66267121,40.012001 C2.64222497,40.0829456 2.62575438,40.1543202 2.61340144,40.2255514 C2.61340144,40.2255514 3.6276205,40.0410954 4.27437507,40.2087827 C4.39747852,40.2407436 4.53960833,40.2330042 4.59654545,40.3604179 C4.67151503,40.5282485 4.63871584,40.8459944 4.61613977,40.9580726 C4.55025742,41.2847045 4.28488217,41.6762615 3.87254951,41.8949716 C3.70131219,41.9858381 3.61299576,42.0787111 3.33143389,42.0739814 C2.52849271,42.0607957 2.92293491,42.0549195 2.52849271,42.0607957 L2.0106631,42.0559228 L2.01023714,42.0560661 C1.67486188,42.1843397 1.14680914,42.1721573 0.865389266,42.0342811 C0.69046026,41.9487176 0.610947075,41.6709586 0.576018069,41.4733169 C0.553583992,41.3473365 0.578431863,41.2136166 0.644456203,41.0995319 L0.948310159,40.5745417 L0.947742207,40.5738251" id="Fill-771" fill="#D6D6D6"></path>
                    <path d="M7.50238554,23.7458807 C8.44049913,23.5754702 9.18153361,23.8204083 9.13453564,25.3030794 C9.13453564,25.3030794 8.22013402,29.3043562 7.79076282,30.1212943 C7.11632063,31.4041738 6.77398797,32.1136201 6.47283179,32.6952227 C6.20632063,33.210037 5.58214213,33.2920175 5.22234497,33.1124344 C4.685347,32.8445647 4.24362286,32.392239 4.45603665,31.5798872 C4.56323747,31.1696982 4.65126992,30.477164 4.98778108,28.9914833 C5.14723341,28.2877699 5.06260866,27.0043171 5.80974862,25.3903627 C6.1926898,24.5633921 6.68723341,23.8939328 7.50238554,23.7458807" id="Fill-772" fill="#FABA8F"></path>
                    <path d="M2.17156187,16.8669624 C2.17156187,16.8669624 1.08507099,16.4881611 0.851926978,17.8709363 C0.851926978,17.8709363 2.66894523,21.3323174 3.1779716,21.6021937 L3.89728195,21.2016073 C3.89728195,21.2016073 2.59454361,17.2464803 2.17156187,16.8669624" id="Fill-773" fill="#EBAF86"></path>
                    <path d="M3.70332657,20.8325333 C3.92411765,21.0935235 3.88180527,21.1547222 4.05275862,21.1296407 C4.22371197,21.1045593 4.33772819,21.0493802 4.50342799,21.1164551 C4.66926978,21.1833867 4.97837728,21.3992303 5.07109533,21.5650544 C5.16381339,21.7310219 5.46283976,22.1076733 5.45474645,22.155973 C5.44651116,22.204416 5.52247465,22.2853932 5.41399594,22.3831391 C5.30551724,22.480885 5.2721501,22.4575235 5.20598377,22.5015235 C5.13995943,22.5455235 5.18369168,22.6111652 5.06456389,22.6919991 C4.97894523,22.7500447 4.93776876,22.7066179 4.85144016,22.7602206 C4.76511156,22.8138232 4.74991886,22.8361815 4.67523327,22.8776017 C4.54034483,22.952416 4.50555781,22.8700056 4.43882353,22.8960903 C4.36584178,22.9244681 4.34482759,22.9848069 4.24273834,23.0245072 C4.10770791,23.0768199 3.86391481,22.9312043 3.73300203,22.7370023 C3.64241379,22.6027092 3.40799189,22.3216538 3.29511156,22.0863183 C3.18237323,21.8508394 3.15780933,21.6119209 3.04464503,21.4651587 C2.93133874,21.3182531 2.83975659,21.1938492 2.83975659,21.1938492 L3.70332657,20.8325333" id="Fill-774" fill="#EBAF86"></path>
                    <path d="M2.60867757,17.9349861 C2.60867757,17.9349861 4.25062484,15.6204715 4.38579725,14.8466734 C4.52111165,14.0730187 4.08705486,13.5253835 3.32273437,13.9679633 C2.74526987,14.302478 1.56975263,16.0371099 1.02963092,16.8649405 C0.825026459,17.1785301 0.794783051,17.57625 0.950969664,17.9170708 C1.20796764,18.4774617 1.72593924,19.0640806 2.60867757,17.9349861" id="Fill-775" fill="#EBAF86"></path>
                    <path d="M7.59957039,12.771173 L7.57628438,14.3085932 C7.57628438,14.3085932 5.97948925,14.6206062 5.30987465,13.7367365 L5.79078743,12.6967887 C5.79078743,12.6967887 4.7247428,11.6922414 4.68612211,10.2494141 C4.64750142,8.80658671 6.75431684,7.54706879 7.86082799,8.04382449 C8.28224787,8.23301016 8.41415457,8.59289289 8.50374889,9.13923817 C8.54236958,9.37557693 8.45092941,9.80812416 8.45717688,10.0661046 C8.4651282,10.404489 8.66604098,10.5448017 8.65354605,10.865844 C8.62344463,11.6387821 8.47393144,12.2890362 8.29630467,12.5441502 C8.00054402,12.9688147 7.59957039,12.771173 7.59957039,12.771173" id="Fill-776" fill="#FABA8F"></path>
                    <path d="M5.73446247,12.6631521 C5.73446247,12.6631521 6.48004057,12.9512303 7.67543611,12.9267222 L7.51995943,14.2749567 C7.51995943,14.2749567 5.77677485,14.5931326 5.2535497,13.7031 L5.73446247,12.6631521" id="Fill-777" fill="#E3A982"></path>
                    <path d="M3.23885684,20.2235561 C3.41492175,22.7563508 3.05441465,23.7630479 3.03396841,23.8454583 L3.03198058,23.853771 C5.08356273,25.9157515 7.11910025,25.4710219 9.26609822,25.473315 C9.13646333,24.6238427 8.96451607,23.841732 8.74003331,23.1668264 C8.61323818,21.856859 8.43731526,19.4841554 8.67699072,19.0610675 C9.08889741,18.3331326 8.98595624,16.5759991 8.05877571,15.9727548 C7.13173717,15.3696538 6.6681469,14.381732 6.6681469,14.381732 C6.6681469,14.381732 5.48340045,14.7976538 4.40173717,13.809732 C4.40173717,13.809732 2.34149376,13.9943313 2.4157534,15.6456929 C2.48987104,17.2971978 3.23885684,20.2234127 3.23885684,20.2235561" id="Fill-778" fill="#E8E8E8"></path>
                    <path d="M9.57757883,20.1499593 C9.57757883,20.1499593 9.0762198,17.2551319 8.54461737,16.6097508 C8.01301494,15.964513 7.29782224,16.1998485 7.11735571,17.1439136 C6.93688918,18.0879788 8.175591,21.6127084 8.175591,21.6127084 C8.175591,21.6127084 10.1381468,22.8755228 9.57757883,20.1499593" id="Fill-779" fill="#FABA8F"></path>
                    <path d="M9.4390119,20.4042538 C9.4390119,20.4042538 7.68532021,20.3056479 8.18185165,21.6157587 C8.18185165,21.6157587 11.7784034,24.1752114 12.3527441,24.1462603 L12.8620545,23.3806316 C12.8620545,23.3806316 9.99446829,20.5136088 9.4390119,20.4042538" id="Fill-780" fill="#FABA8F"></path>
                    <path d="M2.5853144,23.5556603 C2.38880325,23.6413671 2.07742394,26.4023313 2.79701826,28.1353867 C2.90833671,28.4033997 2.91983773,30.4854453 2.82342799,31.678175 C2.72701826,32.8709046 2.10596349,34.608403 1.83703854,35.5732499 C1.42286004,37.0592173 1.12028398,37.7633606 0.851926978,39.8006896 C0.851926978,39.8006896 7.41716024,40.2897059 9.99239351,37.8205463 C9.99239351,37.8205463 11.6265314,32.451543 11.2881744,30.5787482 C11.0467951,29.2418362 9.53618661,25.821732 9.53618661,25.821732 L2.5853144,23.5556603" id="Fill-781" fill="#E8E8E8"></path>
                    <path d="M12.4881136,23.302368 C12.809858,23.4135862 12.8041785,23.4881139 12.938783,23.3787589 C13.0733874,23.2694038 13.1435294,23.1632019 13.3201623,23.1358273 C13.4966531,23.1084527 13.871501,23.1353973 14.034929,23.2305634 C14.198357,23.3257296 14.6457606,23.4964266 14.6630832,23.5422898 C14.6804057,23.5880097 14.7866126,23.618824 14.7425963,23.7587068 C14.6984381,23.8984462 14.6578296,23.8955797 14.6231846,23.9673843 C14.5883976,24.0391888 14.6591075,24.0732996 14.5973428,24.2040097 C14.5529006,24.2980292 14.4955375,24.2818338 14.4482556,24.3722703 C14.4009736,24.4627068 14.3991278,24.4897947 14.3556795,24.5637491 C14.2774442,24.697469 14.2058824,24.6444397 14.1615822,24.701052 C14.1131643,24.7631107 14.1253753,24.8258859 14.0575051,24.9123094 C13.9676268,25.026824 13.6843611,25.0265374 13.4737931,24.9266416 C13.3281136,24.8575602 12.984645,24.7360227 12.7688235,24.591267 C12.553002,24.4466546 12.4115822,24.253456 12.2400609,24.1852345 C12.0685396,24.117013 11.9269777,24.0568175 11.9269777,24.0568175 L12.4881136,23.302368" id="Fill-782" fill="#FABA8F"></path>
                    <path d="M2.55578093,24.2722727 C2.55578093,24.2722727 4.42689655,28.1716473 9.57679513,25.8362075 C9.57679513,25.8362075 4.58166329,25.5828134 2.55578093,24.2722727" id="Fill-783" fill="#D3D4D4"></path>
                    <path d="M9.13014643,15.0383832 C8.85043041,14.5591129 7.93148517,13.9223311 7.72247909,13.3817187 C7.63331073,13.1511129 7.94298619,12.7872171 7.94298619,12.7872171 C7.61868598,12.370722 7.29367584,11.089849 7.36239795,10.5294582 C7.38270221,10.4954907 8.1306941,9.24328226 8.65278335,8.88683927 C8.8575298,8.74709985 8.23718497,7.78569269 8.23718497,7.78569269 L8.23533913,7.78984904 C7.86020728,7.1901878 7.0129659,6.37109985 5.44655617,6.73241581 C4.19961905,7.02006402 3.47945677,8.47851353 3.40761093,9.41842233 C3.27953791,11.0905657 3.90953791,11.6548262 3.87730667,12.1737969 C3.8443655,12.7028002 3.49479146,12.3846243 3.04085637,13.3817187 C2.46779349,14.6400901 1.31357442,16.3364549 0.562316815,17.3872953 C0.0814040364,18.0601943 -0.101902252,18.9016406 0.0545683366,19.7162855 C0.438645416,21.7173539 2.11637361,24.3673865 4.58199227,25.3316601 C5.99051154,25.8825917 8.40941621,26.151608 10.4740612,25.7541748 C12.2937773,25.4037513 13.5009578,23.5762464 13.7122357,22.7051324 C13.7122357,22.7051324 12.9354203,21.4182399 11.5980369,19.1851324 C10.7250957,17.7272562 9.58251966,15.8136145 9.13014643,15.0383832" id="Fill-784" fill="#E8E8E8"></path>
                    <path d="M7.784103,13.5716733 C7.784103,13.5716733 7.80824093,13.5579144 7.84657765,13.531973 C7.81250057,13.4757906 7.78254114,13.4200381 7.76152694,13.3655756 C7.67235858,13.1349697 7.98203404,12.771074 7.98203404,12.771074 C7.65773383,12.3545789 7.3325817,11.0737059 7.4014458,10.513315 C7.4014458,10.513315 6.85394073,12.9662792 7.784103,13.5716733" id="Fill-785" fill="#D3D4D4"></path>
                    <path d="M4.05019928,28.8585919 C4.02577737,28.8587352 4.00632504,28.8734974 3.99269421,28.9481684 C3.98105121,29.0228394 3.96443863,29.1577059 3.98644674,29.3964811 C4.00802889,29.6332499 4.05602078,29.9818101 4.23833315,30.4405854 C4.41141632,30.9036603 4.75019928,31.4467092 5.1956151,32.1064225 C5.41853599,32.4400772 5.63506743,32.790644 5.84251165,33.1811978 C6.04952991,33.5642987 6.24263336,33.9658883 6.32441835,34.3878297 C6.39867798,34.8094844 6.36573681,35.2476212 6.24533113,35.6598166 C6.12833315,36.0731587 5.94559482,36.4614193 5.76427636,36.824885 C5.58196399,37.1886375 5.39879969,37.5290284 5.24729867,37.845771 C5.09863741,38.1640903 4.97226825,38.452885 4.89715668,38.7069958 C4.7371364,39.2122075 4.73500658,39.5389828 4.75204512,39.5389828 C4.78342443,39.5437124 4.83212626,39.2291196 5.02707555,38.7534323 C5.11950962,38.5139404 5.26121348,38.2401945 5.42378954,37.9359209 C5.59516885,37.6332238 5.78472261,37.2979925 5.98634532,36.9414062 C6.18441835,36.5800903 6.38802889,36.1853802 6.52703498,35.7432303 C6.6691648,35.303517 6.72198427,34.8084811 6.64474289,34.3260577 C6.56026013,33.8447808 6.35494573,33.4095105 6.14721754,33.0142271 C5.94389096,32.6205202 5.71273478,32.240429 5.49023985,31.9083508 C5.04028042,31.241758 4.71711612,30.7388394 4.54034127,30.3164681 C4.35518914,29.8986831 4.28646703,29.5840903 4.23478346,29.3649502 C4.18267393,29.1449502 4.16109177,29.0166766 4.1304224,28.945302 C4.10174086,28.8739274 4.07462119,28.8585919 4.05019928,28.8585919" id="Fill-786" fill="#D9DADA"></path>
                    <path d="M8.00840335,13.6684007 C7.96140538,13.6544985 7.91511734,13.7032281 7.76801795,14.1443747 C7.69688205,14.3673845 7.59635467,14.6832672 7.45209503,15.1363095 C7.30613154,15.5883486 7.12154737,16.1796972 6.80534047,16.9115017 C6.49140538,17.6424463 6.04811937,18.4377428 5.44410315,19.1060555 C5.1494784,19.4481662 4.80813966,19.7399708 4.46026947,20.0155799 C4.10771369,20.2919056 3.75899158,20.5517493 3.4251782,20.7867981 C2.75939726,21.2604789 2.13308895,21.6001532 1.64848448,21.7148112 C1.1652999,21.8329089 0.850370895,21.8194366 0.851932761,21.8524007 C0.851932761,21.8642965 0.928890164,21.8779121 1.07101998,21.8867981 C1.21286582,21.8941076 1.42101998,21.8939643 1.67815994,21.8505375 C2.1978354,21.7727134 2.87298753,21.4496646 3.56532018,20.9960489 C3.91375832,20.7706027 4.27511734,20.5195017 4.63775426,20.2514887 C5.00110112,19.9804659 5.37083743,19.6789154 5.68548246,19.3274887 C6.33323094,18.6381076 6.80633438,17.8078405 7.12949868,17.0549675 C7.45550274,16.300088 7.63298753,15.6965571 7.76333236,15.2346288 C7.89183134,14.7715538 7.96481309,14.4449219 8.00826136,14.215176 C8.09402201,13.7558275 8.05525933,13.6821597 8.00840335,13.6684007" id="Fill-787" fill="#D9DADA"></path>
                </g>
            </g>
        </g>
    </g>
</svg>