<?xml version="1.0" encoding="UTF-8"?>
<svg width="64px" height="51px" viewBox="0 0 64 51" version="1.1" xmlns="http://www.w3.org/2000/svg" xmlns:xlink="http://www.w3.org/1999/xlink">
    <!-- Generator: Sketch 51.1 (57501) - http://www.bohemiancoding.com/sketch -->
    <title>Group 7</title>
    <desc>Created with Sketch.</desc>
    <defs></defs>
    <g id="App" stroke="none" stroke-width="1" fill="none" fill-rule="evenodd">
        <g id="Main" transform="translate(-32.000000, -135.000000)">
            <g id="Timeline" transform="translate(16.000000, 105.000000)">
                <g id="Group-7" transform="translate(16.000000, 30.000000)">
                    <g id="Group-2" transform="translate(0.000000, 11.000000)">
                        <path d="M5.08470899,5.04311864 C5.08470899,5.04311864 5.23761905,4.67559322 5.76380952,4.67383051 C6.2837037,4.67294915 6.44470899,7.02264407 6.44380952,7.73301695 C6.44380952,7.73301695 5.71164021,8.58264407 5.42380952,8.0379661 C5.06671958,7.3619661 5.08470899,5.04311864 5.08470899,5.04311864" id="Fill-233" fill="#BEBFC0"></path>
                        <path d="M6.63449735,10.9464407 C6.63449735,11.2690169 6.43391534,11.3932881 6.42851852,11.5616271 C6.42402116,11.724678 6.40693122,11.9009492 6.44021164,12.0155254 C6.47349206,12.1292203 6.55624339,12.2702373 6.54365079,12.3654237 C6.53555556,12.4324068 6.47349206,12.5848814 6.50407407,12.6033898 C6.53465608,12.6210169 6.64708995,12.5919322 6.69746032,12.4500339 C6.74783069,12.3098983 6.73074074,12.2931525 6.72084656,12.2261695 C6.71095238,12.1591864 6.67407407,12.0684068 6.71005291,12.1133559 C6.74693122,12.1583051 6.79100529,12.2816949 6.84137566,12.4421017 C6.89084656,12.6025085 6.91603175,12.6509831 6.91603175,12.6659661 C6.91603175,12.675661 6.89444444,12.7117966 6.86296296,12.8131525 C6.84497354,12.8722034 6.8278836,12.9418305 6.81978836,12.9665085 C6.76222222,13.128678 6.79910053,13.2097627 6.84857143,13.2414915 C6.89804233,13.2732203 6.99338624,13.0555254 7.00777778,13.0317288 C7.02306878,13.0070508 7.13640212,12.715322 7.13730159,12.6263051 C7.13910053,12.5108475 7.0905291,12.3301695 7.03746032,12.1635932 C7.00957672,12.0754576 7.43322751,11.8410169 7.39095238,11.5625085 C7.34867725,11.2831186 7.22814815,11.0539661 7.19396825,10.8935593 C7.15888889,10.7340339 7.12111111,10.5577627 7.12111111,10.5577627 L6.59042328,10.6573559 C6.59042328,10.6573559 6.63539683,10.8089492 6.63449735,10.9464407" id="Fill-234" fill="#E3A982"></path>
                        <path d="M7.16711483,11.9071186 C7.06846404,11.8322034 6.95147991,11.9406102 6.94973388,12.0410847 C6.94973388,12.0490169 6.98465452,12.1794576 7.03790849,12.3301695 C7.0937815,12.4879322 7.1103688,12.5390508 7.1103688,12.5540339 C7.1103688,12.5637288 7.06846404,12.5928136 7.01608309,12.6844746 C6.98552753,12.7382373 6.95409896,12.8025763 6.94013071,12.8246102 C6.84933706,12.9709153 6.86767039,13.0572881 6.9069561,13.0987119 C6.94624182,13.1401356 7.08592436,12.948 7.10513071,12.9277288 C7.12433706,12.9074576 7.32425769,12.6033898 7.32513071,12.5143729 C7.32687674,12.3989153 7.27973388,12.2182373 7.22822595,12.051661 C7.22473388,12.0402034 7.20028944,11.9317966 7.16711483,11.9071186" id="Fill-235" fill="#E3A982"></path>
                        <path d="M7.31192965,11.4496949 C7.21327886,11.375661 7.09629473,11.4840678 7.09542171,11.583661 C7.0945487,11.5915932 7.12946933,11.7220339 7.1827233,11.8727458 C7.23859632,12.0313898 7.25518362,12.0816271 7.25518362,12.0966102 C7.25605663,12.1071864 7.21327886,12.1353898 7.1608979,12.2279322 C7.13034235,12.2808136 7.09891378,12.3460339 7.08494552,12.3680678 C6.99415187,12.5134915 7.0124852,12.5998644 7.05177092,12.6412881 C7.09105663,12.6827119 7.23073917,12.4905763 7.24994552,12.4703051 C7.26915187,12.4500339 7.46907251,12.1459661 7.46994552,12.0569492 C7.47256457,11.9414915 7.4245487,11.7608136 7.37304076,11.5942373 C7.3695487,11.5827797 7.34510425,11.4743729 7.31192965,11.4496949" id="Fill-236" fill="#E3A982"></path>
                        <path d="M7.24267968,11.7079322 C7.14402889,11.6330169 7.02704476,11.7414237 7.02617174,11.8418983 C7.02617174,11.8498305 7.06021936,11.9802712 7.11347333,12.1309831 C7.16934635,12.2896271 7.18593365,12.3398644 7.18593365,12.3548475 C7.18680666,12.3645424 7.14402889,12.3936271 7.09164793,12.4861695 C7.06109238,12.5390508 7.02966381,12.6033898 7.01569555,12.6254237 C6.92577492,12.7717288 6.94323524,12.8581017 6.98252095,12.8995254 C7.02267968,12.9409492 7.1614892,12.7488136 7.18069555,12.7285424 C7.1999019,12.7082712 7.39982254,12.4042034 7.40156857,12.3151864 C7.4033146,12.1997288 7.35529873,12.0190508 7.30379079,11.8524746 C7.30029873,11.8410169 7.27585428,11.7326102 7.24267968,11.7079322" id="Fill-237" fill="#E3A982"></path>
                        <path d="M5.42380952,8.0379661 C5.42380952,8.0379661 5.76111111,7.37518644 6.44380952,7.73301695 C6.44380952,7.73301695 7.14809524,10.7375593 7.20835979,10.9499661 C7.20835979,10.9499661 6.74153439,11.5175593 6.44740741,11.2399322 C6.2342328,11.0398644 5.42380952,8.0379661 5.42380952,8.0379661" id="Fill-238" fill="#BEBFC0"></path>
                        <path d="M3.61047619,11.207322 C3.61047619,11.207322 5.38603175,9.58033898 6.08402116,11.2399322 C6.08402116,11.2399322 6.17756614,13.884 6.09481481,14.5062373 C6.00486772,15.1910508 5.97698413,16.0177627 5.93650794,16.4619661 C5.89962963,16.8541695 5.64597884,17.1467797 5.3473545,17.135322 C4.90121693,17.1194576 4.32555556,16.9872542 4.23920635,16.4258305 C4.19603175,16.1420339 3.98465608,15.6564068 3.94148148,14.9292881 C3.9037037,14.275322 3.54481481,13.3604746 3.5421164,12.7426441 C3.53941799,11.935322 3.61047619,11.207322 3.61047619,11.207322" id="Fill-239" fill="#343434"></path>
                        <path d="M4.71952381,21.1446102 L4.89402116,22.8835254 C4.89402116,22.8835254 5.21333333,23.0827119 5.62169312,22.8579661 L5.74761905,21.2697627 C5.74761905,21.2697627 5.02984127,21.5200678 4.71952381,21.1446102" id="Fill-240" fill="#D6D6D6"></path>
                        <path d="M4.22391534,16.2107797 C4.22391534,16.2107797 5.24481481,15.1707797 5.93650794,16.4619661 C5.9437037,16.3703051 5.74671958,21.3191186 5.70354497,22.1564068 C5.70354497,22.1564068 5.61269841,22.3952542 5.25560847,22.3952542 C4.97767196,22.3952542 4.81666667,22.2233898 4.81666667,22.2233898 C4.81666667,22.2233898 3.95407407,17.3671186 4.22391534,16.2107797" id="Fill-241" fill="#343434"></path>
                        <path d="M1.60375661,11.6303729 C1.60375661,11.6303729 4.0242328,10.4431864 4.71952381,12.2085424 C4.71952381,12.2085424 4.24280423,14.6252203 4.16095238,15.2871186 C4.07010582,16.0151186 3.79486772,16.692 3.75349206,17.1635254 C3.71751323,17.5812881 3.4647619,17.8924068 3.16703704,17.8809492 C2.72269841,17.863322 2.14883598,17.7231864 2.06338624,17.1256271 C2.02021164,16.8242034 2.03190476,16.5377627 1.98962963,15.7648136 C1.95185185,15.0685424 1.54259259,14.0637966 1.53989418,13.4054237 C1.53719577,12.5478644 1.60375661,11.6303729 1.60375661,11.6303729" id="Fill-242" fill="#3D3D3D"></path>
                        <path d="M2.98804233,3.33064407 C2.98804233,3.33064407 3.36492063,4.50725424 2.87920635,5.07220339 C2.87920635,5.07220339 3.20571429,5.85220339 4.04312169,5.64067797 C4.5621164,5.51023729 4.70603175,5.28020339 4.70603175,5.28020339 C4.70603175,5.28020339 4.41010582,4.67294915 4.73391534,3.68054237 C4.86703704,3.27159322 2.98804233,3.33064407 2.98804233,3.33064407" id="Fill-243" fill="#E3A982"></path>
                        <path d="M2.49513228,22.3124068 L2.66783069,24.1059661 C2.66783069,24.1059661 3.12386243,24.3747797 3.33613757,23.9605424 L3.39460317,22.387322 C3.39460317,22.387322 2.77216931,22.684339 2.49513228,22.3124068" id="Fill-244" fill="#D6D6D6"></path>
                        <path d="M2.04809524,16.8964746 C2.04809524,16.8964746 3.06539683,15.7903729 3.75349206,17.1635254 C3.7615873,17.0665763 3.51513228,22.4666441 3.47195767,23.3576949 C3.47195767,23.3576949 3.52772487,23.4854915 3.04470899,23.4854915 C2.70201058,23.4854915 2.5778836,23.3136271 2.5778836,23.3136271 C2.5778836,23.3136271 1.60195767,18.5789831 2.04809524,16.8964746" id="Fill-245" fill="#3D3D3D"></path>
                        <path d="M3.73550265,24.7678644 C3.54481481,24.3245424 3.36402116,23.8001356 3.34513228,23.7137627 L2.65613757,23.6952542 C2.65613757,23.6952542 2.49962963,23.9085424 2.49513228,24.1914576 C2.49153439,24.4091525 2.54910053,24.5880678 2.55,24.8912542 C2.55089947,25.1010169 2.64534392,25.3530847 2.86751323,25.5346441 C3.04380952,25.6791864 3.35502646,25.7602712 3.66534392,25.6571525 C3.89380952,25.5804746 3.88301587,25.1089492 3.73550265,24.7678644" id="Fill-246" fill="#D6D6D6"></path>
                        <path d="M7.11661376,24.3686102 C7.05005291,24.2425763 6.67677249,23.7278644 5.80518519,23.1047458 C5.56502646,22.8491525 5.64328042,22.5856271 5.64328042,22.5856271 C5.64328042,22.5856271 5.15756614,22.4402034 4.87063492,22.6490847 C4.87063492,22.6490847 4.87873016,22.7319322 4.88412698,22.8359322 C4.84994709,22.8720678 4.8157672,22.9249492 4.7878836,23.0025085 C4.67904762,23.3039322 4.80047619,23.9649492 4.76539683,24.0742373 C4.76539683,24.0742373 5.27269841,24.1755932 5.51465608,24.3492203 C5.73412698,24.5061017 6.16407407,24.6004068 6.42941799,24.6770847 C7.11661376,24.8753898 7.21195767,24.5475254 7.11661376,24.3686102" id="Fill-247" fill="#D6D6D6"></path>
                        <path d="M6.0210582,10.9014915 C5.92661376,10.4731525 5.7368254,9.63498305 5.69994709,9.15552542 C5.64777778,8.48745763 6.16677249,8.07674576 6.16677249,7.29674576 C6.16677249,6.46298305 5.97248677,6.47267797 5.86634921,5.89538983 C5.74132275,5.21410169 5.92481481,4.73464407 5.92481481,4.73464407 C5.81597884,4.49932203 5.23941799,4.83511864 4.74021164,4.82189831 C3.21740741,4.78047458 3.33343915,4.69586441 3.33343915,4.69586441 C3.33343915,4.69586441 2.5437037,4.76813559 1.85291005,5.56576271 C1.70539683,5.73674576 1.6352381,5.95884746 1.65592593,6.18271186 C1.70269841,6.67979661 2.12634921,10.7049492 1.36449735,12.2940339 C0.991216931,13.0731525 0.84010582,15.3875932 0.90037037,17.2983729 C1.00830688,20.7250847 1.60195767,23.6952542 1.60195767,23.6952542 C1.60195767,23.6952542 3.39910053,25.2217627 6.44380952,22.3124068 C6.44380952,22.3124068 6.59761905,12.296678 6.0210582,10.9014915" id="Fill-248" fill="#E8E8E8"></path>
                        <path d="M1.51920635,5.97823729 C1.51920635,5.97823729 1.66761905,5.56840678 2.16502646,5.70589831 C2.89719577,5.90949153 1.77285714,9.63850847 1.77285714,9.63850847 C1.77285714,9.63850847 0.725873016,10.219322 0.625132275,9.58915254 C0.499206349,8.80650847 1.51920635,5.97823729 1.51920635,5.97823729" id="Fill-249" fill="#E8E8E8"></path>
                        <path d="M1.06227513,13.5341017 C1.06227513,13.5341017 3.96126984,15.1557966 6.42042328,13.4256949 C6.42042328,13.4256949 1.7926455,11.452339 1.06227513,13.5341017" id="Fill-250" fill="#CDCECE"></path>
                        <path d="M1.82232804,12.8528136 C1.95904762,13.1489492 2.18571429,13.1648136 2.26126984,13.3164068 C2.33502646,13.4635932 2.42407407,13.6178305 2.44386243,13.7385763 C2.46275132,13.8602034 2.4510582,14.0294237 2.50142857,14.1105085 C2.53740741,14.168678 2.65613757,14.2779661 2.63724868,14.3096949 C2.61835979,14.3405424 2.50862434,14.3687458 2.40428571,14.2629831 C2.30174603,14.1589831 2.30984127,14.1351864 2.29005291,14.0690847 C2.27026455,14.0029831 2.26306878,13.9007458 2.25047619,13.9597966 C2.2378836,14.0188475 2.25137566,14.1536949 2.27656085,14.3255593 C2.30084656,14.4974237 2.29994709,14.5529492 2.30624339,14.5679322 C2.30984127,14.5767458 2.34402116,14.5987797 2.41417989,14.6772203 C2.45465608,14.7221695 2.49873016,14.7785763 2.51671958,14.7962034 C2.63544974,14.9178305 2.63724868,15.0103729 2.60846561,15.0632542 C2.57878307,15.1161356 2.40338624,14.9627797 2.38089947,14.9477966 C2.35751323,14.9328136 2.13534392,14.7195254 2.09666667,14.6384407 C2.0462963,14.5335593 2.0121164,14.3440678 1.98783069,14.1651525 C1.97433862,14.0717288 1.50751323,14.0620339 1.42656085,13.7852881 C1.34470899,13.5085424 1.35280423,13.2397288 1.31502646,13.0757966 C1.27724868,12.9127458 1.23587302,12.7320678 1.23587302,12.7320678 L1.73867725,12.5646102 C1.73867725,12.5646102 1.76386243,12.7267797 1.82232804,12.8528136" id="Fill-251" fill="#FABA8F"></path>
                        <path d="M1.75936508,13.9976949 C1.81603175,13.8795932 1.96624339,13.9201356 2.00941799,14.0117966 C2.01301587,14.0188475 2.03730159,14.1554576 2.05349206,14.3211525 C2.07058201,14.4938983 2.07777778,14.5485424 2.0831746,14.5626441 C2.08767196,14.572339 2.13714286,14.5767458 2.22349206,14.6357966 C2.27296296,14.6692881 2.32873016,14.7124746 2.35031746,14.7256949 C2.49333333,14.8147119 2.51402116,14.9028475 2.49603175,14.9610169 C2.47804233,15.0183051 2.27206349,14.9125424 2.24597884,14.9028475 C2.22079365,14.8940339 1.9131746,14.7151186 1.87449735,14.6340339 C1.82412698,14.5291525 1.78994709,14.339661 1.76566138,14.1607458 C1.76386243,14.1484068 1.74047619,14.0364746 1.75936508,13.9976949" id="Fill-252" fill="#FABA8F"></path>
                        <path d="M1.44005291,13.6477966 C1.49671958,13.5305763 1.64693122,13.5711186 1.69010582,13.6618983 C1.6937037,13.6698305 1.71888889,13.8064407 1.73417989,13.9721356 C1.75126984,14.1448814 1.75846561,14.1995254 1.76386243,14.2136271 C1.76835979,14.223322 1.81873016,14.2277288 1.90417989,14.2867797 C1.95365079,14.3202712 2.00941799,14.3634576 2.03100529,14.376678 C2.17402116,14.4656949 2.19470899,14.5538305 2.17671958,14.612 C2.15873016,14.6692881 1.95365079,14.5626441 1.92756614,14.5538305 C1.90148148,14.5450169 1.59386243,14.3661017 1.55518519,14.2850169 C1.50481481,14.1801356 1.47063492,13.9906441 1.44634921,13.8117288 C1.44455026,13.7993898 1.42116402,13.6874576 1.44005291,13.6477966" id="Fill-253" fill="#FABA8F"></path>
                        <path d="M1.60915344,13.8513898 C1.66582011,13.7332881 1.81603175,13.7747119 1.86010582,13.8654915 C1.8637037,13.8725424 1.88798942,14.0100339 1.90417989,14.1748475 C1.92037037,14.3484746 1.92756614,14.4031186 1.93296296,14.4172203 C1.93746032,14.4260339 1.98783069,14.431322 2.07328042,14.4894915 C2.12275132,14.5229831 2.17941799,14.5670508 2.20010582,14.5802712 C2.34312169,14.6684068 2.36380952,14.7574237 2.34582011,14.8147119 C2.32783069,14.8728814 2.12275132,14.7662373 2.09666667,14.7574237 C2.07058201,14.7486102 1.76296296,14.5696949 1.72428571,14.4877288 C1.67391534,14.3837288 1.63973545,14.1933559 1.61544974,14.015322 C1.61365079,14.0029831 1.59026455,13.8910508 1.60915344,13.8513898" id="Fill-254" fill="#FABA8F"></path>
                        <path d="M0.625132275,9.58915254 C0.625132275,9.58915254 1.18190476,9.13966102 1.77285714,9.63850847 C1.77285714,9.63850847 1.87269841,12.7690847 1.89338624,12.9955932 C1.89338624,12.9955932 1.31592593,13.3428475 1.06767196,13.104 C0.82031746,12.8660339 0.625132275,9.58915254 0.625132275,9.58915254" id="Fill-255" fill="#E8E8E8"></path>
                        <path d="M6.32867725,4.73376271 C6.09391534,4.15735593 5.76380952,4.12386441 5.76380952,4.12386441 C5.76380952,4.12386441 6.64619048,1.54854237 5.15306878,0.460067797 C4.64216931,0.0872542373 4.09798942,0.0185084746 3.49174603,0.208881356 C2.94936508,0.378983051 2.32693122,0.758847458 2.24417989,1.60230508 C2.24417989,1.60230508 2.45285714,4.61213559 1.46433862,6.03552542 C1.33031746,6.22854237 1.12703704,6.73972881 1.00650794,7.18745763 C0.366084656,9.57857627 -0.174497354,12.6677288 0.18978836,13.2450169 C0.18978836,13.2450169 1.55338624,13.8875254 3.81015873,13.819661 C7.07613757,13.7218305 8.20227513,12.4932203 8.20227513,12.4932203 C8.20227513,12.4932203 6.67677249,5.58955932 6.32867725,4.73376271" id="Fill-256" fill="#E8E8E8"></path>
                        <path d="M3.43597884,2.97633898 C3.43597884,2.97633898 3.2515873,5.34366102 4.83555556,5.34366102 C5.99497354,5.34366102 5.92031746,2.38583051 5.92031746,2.38583051 C5.92031746,2.38583051 3.99994709,1.28413559 3.43597884,2.97633898" id="Fill-257" fill="#CDCECE"></path>
                        <path d="M4.72402116,4.65532203 C3.90640212,4.65532203 3.44677249,3.61444068 3.43597884,2.97633898 C3.43148148,2.6819661 3.50973545,2.41138983 3.77417989,2.2659661 L5.1,1.49301695 L5.72962963,2.132 C5.90952381,2.27742373 5.99857143,2.50569492 5.96259259,2.73661017 C5.85375661,3.432 5.65767196,4.65532203 4.72402116,4.65532203" id="Fill-258" fill="#FABA8F"></path>
                        <path d="M5.7368254,4.13091525 C5.71343915,4.12915254 5.69455026,4.17762712 5.65137566,4.56101695 C5.60100529,4.94264407 5.5389418,5.66359322 5.28708995,6.98386441 C5.15936508,7.644 4.98666667,8.38874576 4.77708995,9.12908475 C4.56931217,9.86942373 4.32465608,10.6035932 4.08449735,11.2496271 C3.84253968,11.895661 3.60417989,12.4535593 3.43148148,12.8510508 C3.34333333,13.0484746 3.2731746,13.2071186 3.22460317,13.3172881 C3.17693122,13.4274576 3.15354497,13.4882712 3.1589418,13.4909153 C3.16433862,13.492678 3.19761905,13.4362712 3.25518519,13.3313898 C3.31095238,13.2256271 3.39460317,13.0722712 3.48994709,12.8766102 C3.68153439,12.4861695 3.93698413,11.9335593 4.1942328,11.2892881 C4.44968254,10.6458983 4.70603175,9.91084746 4.9237037,9.16874576 C5.14227513,8.42752542 5.32037037,7.67837288 5.44989418,7.01471186 C5.7026455,5.68562712 5.74671958,4.95762712 5.76740741,4.57159322 C5.78179894,4.18379661 5.75931217,4.13267797 5.7368254,4.13091525" id="Fill-259" fill="#D4D5D4"></path>
                        <path d="M2.21899471,8.84440678 C2.19560847,8.84352542 2.18031746,8.86291525 2.16322751,9.02420339 C2.14883598,9.18549153 2.12634921,9.48955932 2.16322751,10.0536271 C2.19740741,10.6176949 2.32243386,11.3298305 2.49063492,11.8842034 C2.57338624,12.1618305 2.66243386,12.3997966 2.73169312,12.5681356 C2.80275132,12.7355932 2.85222222,12.8325424 2.86301587,12.8290169 C2.88640212,12.8202034 2.73798942,12.4094915 2.60306878,11.8542373 C2.46544974,11.2989831 2.36201058,10.5965424 2.32783069,10.0430508 C2.29185185,9.48867797 2.29544974,9.18989831 2.28015873,9.02949153 C2.26666667,8.86908475 2.24148148,8.84616949 2.21899471,8.84440678" id="Fill-260" fill="#D4D5D4"></path>
                        <path d="M5.71613757,16.3015593 C5.69455026,16.2953898 5.67026455,16.3235932 5.58751323,16.5668475 C5.50026455,16.8092203 5.36084656,17.2710508 5.0226455,18.1030508 C4.85174603,18.5181695 4.64126984,18.9835254 4.41010582,19.4418305 C4.1789418,19.9010169 3.92708995,20.3522712 3.68962963,20.748 C3.45126984,21.1419661 3.22820106,21.4804068 3.06719577,21.7218983 C2.90529101,21.9625085 2.80814815,22.1079322 2.81804233,22.1149831 C2.82703704,22.1211525 2.94126984,21.9880678 3.12026455,21.7580339 C3.29746032,21.5262373 3.53671958,21.1966102 3.7894709,20.8070508 C4.04132275,20.4166102 4.3057672,19.968 4.54592593,19.5088136 C4.78698413,19.0505085 5.00285714,18.5825085 5.17555556,18.1629831 C5.5173545,17.3239322 5.64058201,16.8524068 5.69904762,16.600339 C5.75391534,16.3465085 5.73772487,16.3077288 5.71613757,16.3015593" id="Fill-261" fill="#D4D5D4"></path>
                        <path d="M13.3751323,25.4703051 C13.2626984,25.0322712 12.8921164,24.7696271 12.7733862,24.5228475 C12.5934921,24.1509153 12.6609524,23.6344407 12.6609524,23.6344407 C12.3326455,23.895322 11.6499471,23.7472542 11.6499471,23.7472542 C11.6499471,23.7472542 11.6301587,24.2505085 11.6130688,24.4320678 C11.6004762,24.5748475 11.5833862,24.6691525 11.5833862,24.8630508 C11.5833862,24.8630508 11.9890476,25.3980339 12.0250265,25.5029153 C12.131164,25.8069831 12.3200529,25.8616271 12.5242328,25.9268475 C12.5844974,25.9462373 12.8318519,25.9673898 13.057619,25.9048136 C13.3220635,25.8307797 13.3760317,25.4720678 13.3751323,25.4703051" id="Fill-262" fill="#FABA8F"></path>
                        <path d="M14.2764021,4.99552542 C14.2764021,4.99552542 14.3789418,4.56454237 14.9501058,4.51871186 C15.779418,4.45172881 15.8945503,8.61613559 15.8819577,8.02827119 C15.8819577,8.02827119 14.9591005,8.80915254 14.6460847,8.25213559 C14.2566138,7.56027119 14.2764021,4.99552542 14.2764021,4.99552542" id="Fill-263" fill="#E3A982"></path>
                        <path d="M15.9638095,11.0345763 C15.9638095,11.3642034 15.7452381,11.4911186 15.7398413,11.6629831 C15.7344444,11.8295593 15.7155556,12.0102373 15.7524339,12.1265763 C15.7884127,12.2437966 15.8783598,12.3874576 15.8648677,12.4852881 C15.855873,12.5540339 15.7884127,12.7100339 15.8216931,12.7285424 C15.8549735,12.7470508 15.9773016,12.7170847 16.0321693,12.571661 C16.087037,12.4288814 16.0681481,12.4121356 16.0573545,12.3433898 C16.0465608,12.2746441 16.0060847,12.1812203 16.0456614,12.2270508 C16.0852381,12.2728814 16.1338095,12.3997966 16.1886772,12.5637288 C16.243545,12.727661 16.2696296,12.7770169 16.2705291,12.7928814 C16.2705291,12.8025763 16.2471429,12.8395932 16.212963,12.9435932 C16.1931746,13.0035254 16.1742857,13.0749153 16.165291,13.1004746 C16.102328,13.2661695 16.1437037,13.3490169 16.1967725,13.3816271 C16.2498413,13.4142373 16.3541799,13.1912542 16.3703704,13.1665763 C16.3865608,13.1418983 16.5097884,12.8431186 16.5115873,12.7514576 C16.5133862,12.6342373 16.459418,12.4491525 16.4027513,12.2790508 C16.3721693,12.1891525 16.8335979,11.9485424 16.7868254,11.6638644 C16.7409524,11.3783051 16.6096296,11.1438644 16.5718519,10.9799322 C16.5349735,10.8168814 16.4935979,10.6362034 16.4935979,10.6362034 L15.9152381,10.7375593 C15.9152381,10.7375593 15.9638095,10.8935593 15.9638095,11.0345763" id="Fill-264" fill="#E3A982"></path>
                        <path d="M16.547323,12.0164068 C16.4385895,11.9397288 16.3095238,12.0507797 16.3086398,12.1530169 C16.3077558,12.1618305 16.3457683,12.2949153 16.4049971,12.4491525 C16.4668779,12.611322 16.4845582,12.6624407 16.4854422,12.6783051 C16.4854422,12.688 16.4385895,12.7179661 16.3802447,12.8122712 C16.3475363,12.8660339 16.3121758,12.9330169 16.2971476,12.9550508 C16.1972543,13.104 16.2167025,13.1930169 16.2609031,13.235322 C16.3042197,13.2776271 16.4580378,13.0810847 16.4792541,13.0599322 C16.5004704,13.039661 16.7205894,12.7285424 16.7223574,12.6368814 C16.7241254,12.519661 16.6710847,12.3345763 16.6153919,12.1644746 C16.6109719,12.1530169 16.5835675,12.0419661 16.547323,12.0164068" id="Fill-265" fill="#E3A982"></path>
                        <path d="M16.7043151,11.5484068 C16.5966087,11.4726102 16.4668313,11.583661 16.4659484,11.6858983 C16.4659484,11.6938305 16.5039105,11.8277966 16.5621779,11.9820339 C16.6239767,12.143322 16.6416335,12.195322 16.6425163,12.2103051 C16.6425163,12.2208814 16.5957258,12.2499661 16.5383413,12.3442712 C16.5047934,12.3989153 16.4694798,12.4650169 16.4544715,12.4879322 C16.3555935,12.6368814 16.3750159,12.7250169 16.4182751,12.767322 C16.4615342,12.8096271 16.6151483,12.6139661 16.6363365,12.5928136 C16.6575246,12.571661 16.8773517,12.2614237 16.8791173,12.1697627 C16.880883,12.0525424 16.8287955,11.8674576 16.7722937,11.6964746 C16.7687624,11.6850169 16.7405115,11.5739661 16.7043151,11.5484068" id="Fill-266" fill="#E3A982"></path>
                        <path d="M16.6296184,11.8128136 C16.5210378,11.7361356 16.3921535,11.8471864 16.390388,11.9494237 C16.390388,11.9582373 16.4283471,12.091322 16.4874926,12.2455593 C16.5484037,12.4077288 16.5669418,12.4588475 16.5669418,12.4747119 C16.5678246,12.4844068 16.5210378,12.5134915 16.4627751,12.608678 C16.4301126,12.6624407 16.3948018,12.7294237 16.3797947,12.7514576 C16.2800418,12.9004068 16.2994627,12.9894237 16.3427184,13.0317288 C16.3868569,13.0740339 16.539576,12.8774915 16.5616452,12.856339 C16.5828317,12.8360678 16.8026412,12.5249492 16.803524,12.4332881 C16.8061723,12.3160678 16.7532061,12.1309831 16.6967089,11.9608814 C16.6931778,11.9494237 16.665812,11.8383729 16.6296184,11.8128136" id="Fill-267" fill="#E3A982"></path>
                        <path d="M14.6460847,8.05911864 C14.6460847,8.05911864 15.007672,7.09227119 15.7515344,7.4580339 C15.7515344,7.4580339 16.6357143,10.9684746 16.6357143,11.2848814 C16.6357143,11.2848814 16.071746,11.5131525 15.9719048,11.3738983 C15.7299471,11.0381017 14.6460847,8.05911864 14.6460847,8.05911864" id="Fill-268" fill="#E3A982"></path>
                        <path d="M12.7293122,11.363322 C12.7293122,11.363322 14.8025926,9.60677966 15.5815344,11.3033898 C15.5815344,11.3033898 15.5950265,14.1016949 15.5032804,14.7380339 C15.4025397,15.4378305 15.4277249,16.0838644 15.3818519,16.5377627 C15.3413757,16.9387797 15.0580423,17.2375593 14.7243386,17.2269831 C14.2260317,17.2102373 13.5829101,17.0753898 13.4875661,16.5007458 C13.4389947,16.2107797 13.1466667,15.9146441 13.0989947,15.1707797 C13.0567196,14.5018305 12.6555556,13.5658305 12.6528571,12.9338983 C12.6501587,12.1089492 12.7293122,11.363322 12.7293122,11.363322" id="Fill-269" fill="#FABA8F"></path>
                        <path d="M13.4704762,16.2804068 C13.4704762,16.2804068 14.6101058,15.2166102 15.3818519,16.5377627 C15.3908466,16.444339 15.1138095,21.7060339 15.0661376,22.5627119 C15.0661376,22.5627119 14.9644974,22.8068475 14.5660317,22.8068475 C14.2548148,22.8068475 14.0632275,22.5204068 14.0632275,22.5204068 C14.0632275,22.5204068 13.168254,17.4631864 13.4704762,16.2804068" id="Fill-270" fill="#FABA8F"></path>
                        <path d="M10.7351852,11.739661 C10.7351852,11.739661 13.2716931,10.5824407 14.0515344,12.3874576 C14.0515344,12.3874576 13.5163492,14.859661 13.4246032,15.5365424 C13.322963,16.2812881 13.0144444,16.9731525 12.9685714,17.4561356 C12.9280952,17.8835932 12.6447619,18.2008814 12.3110582,18.1894237 C11.8127513,18.1717966 11.1696296,18.0281356 11.0733862,17.4173559 C11.0248148,17.1088814 11.0392063,16.8162712 10.9915344,16.0256949 C10.9492593,15.3135593 10.6659259,14.2286102 10.6632275,13.5561356 C10.6596296,12.6783051 10.7351852,11.739661 10.7351852,11.739661" id="Fill-271" fill="#FABA8F"></path>
                        <path d="M14.0632275,22.5204068 L14.0326455,23.6688136 C14.0290476,23.8010169 14.1055026,23.9235254 14.2287302,23.9772881 C14.3069841,24.011661 14.4104233,24.0504407 14.5408466,24.088339 C14.8007937,24.1658983 15.2253439,24.2249492 15.5122751,24.3157288 C15.7929101,24.4047458 16.0960317,24.4541017 16.3011111,24.5105085 C16.4495238,24.5510508 16.5160847,24.6180339 16.6312169,24.5924746 C17.0818519,24.4893559 16.9910053,24.2610847 16.9910053,24.2610847 C16.9910053,24.2610847 16.9055556,24.0063729 16.598836,23.8424407 C16.3496825,23.7093559 15.1578836,22.8808814 15.0661376,22.5627119 C15.0661376,22.5627119 14.6766667,22.9090847 14.0632275,22.5204068" id="Fill-272" fill="#FABA8F"></path>
                        <path d="M11.0562963,17.1829153 C11.0562963,17.1829153 12.1968254,16.0512542 12.9685714,17.4561356 C12.9775661,17.3565424 12.7005291,22.8808814 12.6528571,23.7922034 C12.6528571,23.7922034 12.7149206,23.9217627 12.1734392,23.9217627 C11.7893651,23.9217627 11.6499471,23.7472542 11.6499471,23.7472542 C11.6499471,23.7472542 10.7549735,18.4414915 11.0562963,17.1829153" id="Fill-273" fill="#FABA8F"></path>
                        <path d="M12.4387831,4.70291525 C12.4387831,4.70291525 10.9852381,5.16562712 10.5175132,6.35810169 C10.5175132,6.35810169 10.7684656,7.58230508 10.942963,9.34942373 C10.9942328,9.87823729 10.740582,10.7974915 10.6056614,12.1486102 C10.1649206,16.560678 10.324127,22.5450847 10.3466138,23.0571525 C10.3717989,23.6406102 11.6616402,24.0063729 12.6159788,23.9808136 C14.7612169,23.9217627 15.8828571,22.2604068 15.8828571,21.7536271 C15.8828571,21.7536271 15.7893122,19.9970847 15.7299471,16.7519322 C15.6930688,14.7010169 16.1679894,13.2573559 15.7398413,11.6629831 C15.6804762,11.4435254 16.8857672,11.492 16.8884656,10.9896271 C16.8965608,9.72488136 16.2246561,7.37518644 15.8828571,6.20650847 C15.6732804,5.48908475 15.3746561,4.74874576 15.3746561,4.74874576 C15.2631217,4.50813559 14.8943386,4.36888136 14.3843386,4.35477966 C12.826455,4.31247458 12.4387831,4.70291525 12.4387831,4.70291525" id="Fill-274" fill="#E8E8E8"></path>
                        <path d="M10.942963,20.9348475 C10.585873,18.9244746 11.2226984,13.1912542 11.2289947,11.5237288 C11.235291,9.85532203 12.0969841,7.60698305 11.7497884,6.57050847 C11.405291,5.54108475 10.5678836,6.25762712 10.5570899,6.26732203 L10.555291,6.27084746 C10.5516931,6.28054237 10.54,6.31667797 10.5211111,6.37572881 C10.5516931,6.52820339 10.7801587,7.70305085 10.942963,9.34942373 C10.9942328,9.87823729 10.7414815,10.7974915 10.6056614,12.1486102 C10.1649206,16.560678 10.324127,22.5450847 10.3466138,23.0571525 C10.3619048,23.4096949 10.8305291,23.6961356 11.4187831,23.8450847 C11.4187831,23.8450847 11.2991534,22.9452203 10.942963,20.9348475" id="Fill-275" fill="#CDCECE"></path>
                        <path d="M12.4387831,4.70291525 C12.4387831,4.70291525 11.0401058,5.14888136 10.5462963,6.29288136 C10.5283069,6.34488136 10.5211111,6.37572881 10.5211111,6.37572881 C10.5516931,6.52820339 11.6265608,6.89925424 11.4880423,8.04766102 C11.5285185,8.05118644 12.5404233,7.87315254 13.4677778,7.17511864 C14.3843386,6.48501695 14.3843386,4.35477966 14.3843386,4.35477966 C12.826455,4.31247458 12.4387831,4.70291525 12.4387831,4.70291525" id="Fill-276" fill="#FABA8F"></path>
                        <path d="M15.4196296,4.83159322 C15.3962434,4.8280678 15.3737566,4.87918644 15.2856085,5.29342373 C15.1938624,5.70677966 15.0328571,7.07288136 14.6928571,8.50949153 C14.5183598,9.2260339 14.3294709,10.0456949 14.0371429,10.8318644 C13.7493122,11.6180339 13.3265608,12.3645424 12.7931746,12.8977627 C12.2651852,13.4353898 11.6706349,13.7658983 11.2325926,13.9492203 C10.7909524,14.131661 10.5040212,14.1871864 10.5085185,14.2021695 C10.509418,14.2074576 10.5813757,14.1968814 10.7117989,14.1695593 C10.8413228,14.1395932 11.0293122,14.0911186 11.2568783,14.0073898 C11.7084127,13.8390508 12.3236508,13.5191186 12.8768254,12.9770847 C13.4353968,12.4412203 13.8806349,11.6788475 14.1801587,10.8829831 C14.4850794,10.0862373 14.6784656,9.2639322 14.8538624,8.54650847 C15.1947619,7.10637288 15.3377778,5.73410169 15.3998413,5.31457627 C15.4592063,4.89416949 15.4412169,4.836 15.4196296,4.83159322" id="Fill-277" fill="#CDCECE"></path>
                        <path d="M15.6687831,15.3038644 C15.6471958,15.2976949 15.6184127,15.34 15.4924868,15.7013559 C15.4304233,15.8837966 15.3413757,16.1429153 15.2154497,16.5157288 C15.0877249,16.887661 14.9240212,17.3732881 14.6901587,17.9972881 C14.4553968,18.6204068 14.1675661,19.3210847 13.8293651,20.0032542 C13.492963,20.6854237 13.1034921,21.3464407 12.7113228,21.9052203 C12.3191534,22.464 11.9242857,22.9187797 11.6274603,23.2290169 C11.3297354,23.5392542 11.1354497,23.7128814 11.1444444,23.7225763 C11.1489418,23.7269831 11.2011111,23.6882034 11.2937566,23.6124068 C11.3864021,23.5374915 11.5159259,23.4220339 11.6733333,23.2730847 C11.9863492,22.9734237 12.3983069,22.5265763 12.8066667,21.9704407 C13.2159259,21.4151864 13.6197884,20.7532881 13.9660847,20.0684746 C14.3150794,19.3845424 14.6092063,18.6794576 14.8448677,18.0528136 C15.0805291,17.4261695 15.2397354,16.9378983 15.3593651,16.5624407 C15.4780952,16.1861017 15.5545503,15.9216949 15.6031217,15.7366102 C15.701164,15.3655593 15.6903704,15.3109153 15.6687831,15.3038644" id="Fill-278" fill="#CDCECE"></path>
                        <path d="M15.2557302,6.19945763 C15.23412,6.19769492 15.2185607,6.2179661 15.2030014,6.37484746 C15.187442,6.53261017 15.1692895,7.11166102 15.1632387,7.66338983 C15.1571878,8.21423729 15.1779336,8.91667797 15.2220183,9.47986441 C15.2643742,10.0430508 15.3231539,10.4652203 15.3447641,10.4625763 C15.3672387,10.4608136 15.3473573,10.0351186 15.3335268,9.47281356 C15.3188319,8.91050847 15.3162387,8.21247458 15.3222895,7.66427119 C15.3283403,7.11694915 15.3283403,6.53877966 15.3145098,6.38101695 C15.3024081,6.22237288 15.2773403,6.20033898 15.2557302,6.19945763" id="Fill-279" fill="#CDCECE"></path>
                        <path d="M10.5175132,6.35810169 C10.5175132,6.35810169 10.6650265,5.88745763 11.5168254,6.10779661 C12.2328042,6.29288136 11.7641799,7.99125424 11.7641799,7.99125424 L11.4880423,8.04766102 C11.4880423,8.04766102 10.2539683,8.20013559 10.5175132,6.35810169" id="Fill-280" fill="#E3A982"></path>
                        <path d="M10.5175132,6.35810169 C10.5175132,6.35810169 10.8260317,5.70854237 11.5168254,6.10779661 C12.2651852,6.54054237 10.7531746,10.1690847 10.7531746,10.1690847 C10.7531746,10.1690847 9.68460317,10.9191186 9.56857143,10.2739661 C9.42465608,9.47369492 10.5175132,6.35810169 10.5175132,6.35810169" id="Fill-281" fill="#FABA8F"></path>
                        <path d="M10.8107407,13.5120678 C10.9672487,13.8152542 11.2280952,13.8311186 11.3153439,13.9871186 C11.3998942,14.1378305 11.5024339,14.2947119 11.5249206,14.4189831 C11.5474074,14.5423729 11.5330159,14.716 11.592381,14.7997288 C11.6328571,14.8578983 11.7695767,14.9707119 11.7479894,15.0024407 C11.7255026,15.0341695 11.5995767,15.0632542 11.4799471,14.9548475 C11.3621164,14.8482034 11.3702116,14.8244068 11.3477249,14.7565424 C11.3252381,14.688678 11.3171429,14.584678 11.3027513,14.6446102 C11.2883598,14.7045424 11.3045503,14.8429153 11.3324339,15.0183051 C11.3603175,15.1945763 11.359418,15.2518644 11.3666138,15.2659661 C11.3711111,15.275661 11.4097884,15.2985763 11.4907407,15.3787797 C11.5375132,15.4246102 11.5887831,15.4818983 11.6094709,15.5004068 C11.7461905,15.624678 11.7479894,15.7189831 11.714709,15.7736271 C11.6805291,15.8273898 11.4790476,15.6705085 11.4520635,15.6555254 C11.4259788,15.639661 11.1705291,15.4219661 11.1255556,15.3391186 C11.0679894,15.2315932 11.0293122,15.0376949 11.0005291,14.8552542 C10.9852381,14.7591864 10.448254,14.7494915 10.354709,14.4665763 C10.261164,14.183661 10.2701587,13.9077966 10.2260847,13.740339 C10.1829101,13.5737627 10.1352381,13.388678 10.1352381,13.388678 L10.7135979,13.2176949 C10.7135979,13.2176949 10.7432804,13.3833898 10.8107407,13.5120678" id="Fill-282" fill="#FABA8F"></path>
                        <path d="M10.7369841,14.6833898 C10.8026455,14.5626441 10.9762434,14.6040678 11.0257143,14.6974915 C11.0302116,14.7045424 11.0580952,14.8455593 11.0760847,15.0138983 C11.095873,15.1910508 11.1039683,15.2474576 11.1102646,15.2615593 C11.1147619,15.2712542 11.1732275,15.275661 11.2721693,15.3355932 C11.328836,15.3699661 11.3926984,15.4149153 11.4178836,15.4281356 C11.5815873,15.5189153 11.605873,15.6096949 11.5851852,15.6687458 C11.5644974,15.7277966 11.3279365,15.6185085 11.298254,15.6096949 C11.2685714,15.6 10.9150794,15.4175593 10.8701058,15.3338305 C10.8116402,15.2271864 10.772963,15.0332881 10.7441799,14.8499661 C10.742381,14.8376271 10.7153968,14.7230508 10.7369841,14.6833898" id="Fill-283" fill="#FABA8F"></path>
                        <path d="M10.37,14.3264407 C10.4347619,14.2056949 10.6083598,14.2471186 10.6587302,14.3405424 C10.662328,14.3475932 10.6902116,14.4877288 10.7091005,14.6569492 C10.7288889,14.8341017 10.7360847,14.8896271 10.7432804,14.9046102 C10.7477778,14.9134237 10.8053439,14.9187119 10.9042857,14.9786441 C10.9609524,15.0130169 11.0257143,15.0579661 11.0508995,15.0711864 C11.2146032,15.1619661 11.2388889,15.2527458 11.2182011,15.3109153 C11.1975132,15.3699661 10.9609524,15.2615593 10.9303704,15.2527458 C10.9006878,15.2430508 10.5471958,15.0606102 10.5022222,14.9768814 C10.4446561,14.8702373 10.4059788,14.6754576 10.3771958,14.4930169 C10.3753968,14.480678 10.3484127,14.3661017 10.37,14.3264407" id="Fill-284" fill="#FABA8F"></path>
                        <path d="M10.5642857,14.5335593 C10.6299471,14.4136949 10.803545,14.4551186 10.8530159,14.5485424 C10.8575132,14.5555932 10.8853968,14.6957288 10.9033862,14.8649492 C10.9231746,15.0421017 10.9312698,15.0976271 10.9375661,15.1126102 C10.9420635,15.1214237 11.0005291,15.1267119 11.0994709,15.1866441 C11.1561376,15.2210169 11.2208995,15.2659661 11.2451852,15.2791864 C11.4088889,15.3699661 11.4331746,15.4598644 11.4124868,15.5189153 C11.3917989,15.5779661 11.1552381,15.4695593 11.1255556,15.4607458 C11.095873,15.4510508 10.742381,15.2686102 10.6974074,15.1848814 C10.6389418,15.0782373 10.6002646,14.8834576 10.5714815,14.7010169 C10.5696825,14.688678 10.5426984,14.5741017 10.5642857,14.5335593" id="Fill-285" fill="#FABA8F"></path>
                        <path d="M9.56857143,10.3303729 C9.56857143,10.3303729 9.89058201,9.06915254 10.834127,9.96813559 C10.834127,9.96813559 10.8683069,13.4265763 10.8916931,13.6583729 C10.8916931,13.6583729 10.5570899,14.3052881 10.2719577,14.0611525 C9.9868254,13.8178983 9.56857143,10.3303729 9.56857143,10.3303729" id="Fill-286" fill="#FABA8F"></path>
                        <path d="M12.0861905,3.30684746 C12.0861905,3.30684746 12.2894709,4.7020339 11.9737566,5.0880678 C11.9737566,5.0880678 12.3083598,5.88569492 13.1655556,5.66976271 C13.6962434,5.53667797 13.8437566,5.30047458 13.8437566,5.30047458 L13.8644444,3.51925424 L12.0861905,3.30684746" id="Fill-287" fill="#E3A982"></path>
                        <path d="M11.5186243,2.17871186 C11.5186243,2.17871186 11.3630159,4.82718644 13.6287831,4.83159322 C14.232328,4.83335593 14.482381,4.32040678 14.7315344,3.44169492 C14.8745503,2.93579661 14.8979365,2.028 14.652381,1.33789831 C14.3789418,0.569355932 13.9067196,0.455661017 13.2896825,0.455661017 C11.4844444,0.455661017 11.5186243,2.17871186 11.5186243,2.17871186" id="Fill-288" fill="#FABA8F"></path>
                        <path d="M11.9251852,3.30684746 C11.9251852,3.30684746 11.947672,4.97084746 13.5883069,4.97349153 C14.6613757,4.97525424 14.8151852,2.98338983 14.8151852,2.98338983 C14.8151852,2.98338983 14.7162434,3.18522034 14.6802646,3.35620339 C14.6146032,3.6699661 14.5948148,4.71261017 13.5595238,4.72230508 C12.8561376,4.72847458 12.4387831,4.23844068 12.163545,3.70786441 C12.0592063,3.50691525 12.0861905,3.30684746 11.9251852,3.30684746" id="Fill-289" fill="#333333"></path>
                        <path d="M14.2764021,1.00033898 C14.2764021,1.00033898 13.0180423,2.24569492 12.1050794,2.11613559 C12.1050794,2.11613559 11.9179894,3.18698305 12.177037,3.77308475 C12.177037,3.77308475 12.0007407,3.70081356 11.9251852,3.30684746 C11.8946032,3.14732203 11.9341799,2.84766102 11.9251852,2.61498305 C11.9251852,2.61498305 11.869418,2.44664407 11.7407937,2.42461017 C11.6778307,2.41315254 11.6175661,2.45633898 11.6040741,2.51715254 C11.5662963,2.67579661 11.5168254,3.05830508 11.7866667,3.36766102 C11.7866667,3.36766102 10.7144974,2.93315254 10.9528571,1.84379661 C11.1912169,0.754440678 12.0133333,-0.218576271 13.1772487,0.131322034 C13.1772487,0.131322034 13.7610053,0.0722711864 14.1918519,0.229152542 C14.8151852,0.455661017 15.3080952,1.36345763 14.8385714,2.4660339 C14.8385714,2.4660339 14.6460847,1.72657627 14.2764021,1.00033898" id="Fill-290" fill="#333333"></path>
                    </g>
                    <g id="Group" transform="translate(14.000000, 0.000000)">
                        <polyline id="Fill-3" fill="#E2E2E2" points="15.6143791 30.0576945 3.53431373 23.0888971 3.59803922 9.18327974 15.6830065 16.1766752 15.6143791 30.0576945"></polyline>
                        <polyline id="Fill-4" fill="#CDCECF" points="15.625817 29.9791447 27.6568627 22.9737781 27.6421569 9.18327974 15.6356209 16.0851704 15.625817 29.9791447"></polyline>
                        <polyline id="Fill-5" fill="#EAEAEA" points="3.69771242 9.11998071 15.6797386 0.98392283 15.7238562 16.1004212 3.69771242 9.11998071"></polyline>
                        <polyline id="Fill-6" fill="#D8D8D9" points="15.625817 0.98392283 27.6764706 9.19853055 15.6699346 16.1004212 15.625817 0.98392283"></polyline>
                        <polyline id="Fill-7" fill="#DDDDDD" points="13.3382353 1.58591961 15.6732026 0 15.7075163 2.78597749 13.3382353 1.58591961"></polyline>
                        <polyline id="Fill-8" fill="#CFCFD0" points="15.625817 0 18.0294118 1.67234084 15.6601307 2.78597749 15.625817 0"></polyline>
                        <polyline id="Fill-9" fill="#87888B" points="10.7728758 27.2312122 6.14869281 24.5882315 6.14869281 16.2347267 10.7728758 18.8778714 10.7728758 27.2312122"></polyline>
                        <polyline id="Fill-10" fill="#646568" points="10.8905229 27.1057621 6.96568627 24.7817363 6.96568627 17.2186495 10.8905229 19.5426752 10.8905229 27.1057621"></polyline>
                        <polyline id="Fill-355" fill="#E2E2E2" points="12.1452486 50.8840611 0.0635492941 43.9152637 0.128908771 30.0096463 12.2138761 37.0030418 12.1452486 50.8840611"></polyline>
                        <polyline id="Fill-356" fill="#CDCECF" points="12.1550526 50.8055113 24.1860983 43.8001447 24.1713924 30.0096463 12.1648565 36.911537 12.1550526 50.8055113"></polyline>
                        <polyline id="Fill-357" fill="#EAEAEA" points="0.0635492941 29.9463473 12.0455754 21.8102894 12.0896931 36.9267878 0.0635492941 29.9463473"></polyline>
                        <polyline id="Fill-358" fill="#D8D8D9" points="12.1550526 21.8102894 24.2057062 30.0248971 12.1991702 36.9267878 12.1550526 21.8102894"></polyline>
                        <polyline id="Fill-359" fill="#DDDDDD" points="9.86747086 22.4122862 12.2024382 20.8263666 12.2367519 23.6121801 9.86747086 22.4122862"></polyline>
                        <polyline id="Fill-360" fill="#CFCFD0" points="12.1550526 20.8263666 14.5570133 22.4987074 12.1893663 23.6121801 12.1550526 20.8263666"></polyline>
                        <polyline id="Fill-361" fill="#87888B" points="7.30211139 48.0577428 2.67792838 45.4144341 2.67792838 37.0610932 7.30211139 39.7042379 7.30211139 48.0577428"></polyline>
                        <polyline id="Fill-362" fill="#646568" points="7.25635975 48.0962797 3.33152315 45.77209 3.33152315 38.2090032 7.25635975 40.5330289 7.25635975 48.0962797"></polyline>
                        <polyline id="Fill-363" fill="#E2E2E2" points="37.8970588 43.1766656 25.8169935 36.2077042 25.8823529 22.3022508 37.9673203 29.2956463 37.8970588 43.1766656"></polyline>
                        <polyline id="Fill-364" fill="#CDCECF" points="37.9084967 43.0982797 49.9395425 36.0929132 49.9248366 22.3022508 37.9183007 29.2041415 37.9084967 43.0982797"></polyline>
                        <polyline id="Fill-365" fill="#EAEAEA" points="25.8169935 22.2389518 37.7990196 14.1028939 37.8415033 29.2192283 25.8169935 22.2389518"></polyline>
                        <polyline id="Fill-366" fill="#D8D8D9" points="37.9084967 14.1028939 49.9575163 22.3173376 37.9509804 29.2192283 37.9084967 14.1028939"></polyline>
                        <polyline id="Fill-367" fill="#DDDDDD" points="36 13.5857556 38.3349673 12 38.369281 14.7858135 36 13.5857556"></polyline>
                        <polyline id="Fill-368" fill="#CFCFD0" points="38 12 40.4035948 13.6721768 38.0343137 14.7858135 38 12"></polyline>
                        <polyline id="Fill-369" fill="#87888B" points="33.0555556 40.3501833 28.4313725 37.7070386 28.4313725 29.3536977 33.0555556 31.9968424 33.0555556 40.3501833"></polyline>
                        <polyline id="Fill-370" fill="#646568" points="33.0098039 40.2248971 29.0849673 37.9008714 29.0849673 30.3376206 33.0098039 32.6618103 33.0098039 40.2248971"></polyline>
                    </g>
                </g>
            </g>
        </g>
    </g>
</svg>